<?xml version="1.0" encoding="UTF-8"?>
<svg id="Layer_1" xmlns="http://www.w3.org/2000/svg" version="1.1" viewBox="0 0 595.3 841.9">
  <!-- Generator: Adobe Illustrator 29.1.0, SVG Export Plug-In . SVG Version: 2.1.0 Build 142)  -->
  <defs>
    <style>
      .st0 {
        fill: #ffdd06;
      }

      .st1 {
        fill: #fd0;
      }

      .st2 {
        fill: #1d1d1b;
      }

      .st3 {
        fill: none;
      }

      .st4 {
        fill: #dd0b15;
      }
    </style>
  </defs>
  <g>
    <rect class="st4" x="338.9" y="553.3" width="78.9" height="78.9"/>
    <path class="st2" d="M354.5,668.2c-.7,0-1.3-.3-1.7-.9s-.6-1.5-.6-2.6.2-2.2.6-2.8c.4-.6,1.1-1,1.9-1,1.6,0,2.3,1.2,2.3,3.6s-.2,2.1-.7,2.7-1.1.9-1.8.9ZM354.6,661.8c-.9,0-1.3.9-1.3,2.8s.4,2.7,1.3,2.7,1.2-.9,1.2-2.7-.4-2.8-1.2-2.8Z"/>
    <g>
      <path class="st2" d="M406.3,668.1h-4.4v-.5c0-.2,0-.4,0-.6,0-.2.1-.4.3-.6s.2-.3.4-.5c.1-.2.3-.3.5-.4.2-.1.3-.3.5-.4.2-.1.3-.3.5-.4.2-.1.3-.3.4-.4.1-.1.2-.3.3-.4s.2-.3.2-.4c0-.1,0-.3,0-.5s0-.4,0-.5c0-.1-.1-.3-.2-.4-.1,0-.2-.2-.4-.2s-.3,0-.5,0c-.3,0-.6,0-.9.2s-.6.3-.9.6v-1.1c.1-.1.3-.2.4-.3.1,0,.3-.1.5-.2.2,0,.3,0,.5-.1s.4,0,.6,0c.3,0,.6,0,.9.1s.5.2.7.4.3.4.4.6c.1.2.2.5.2.8s0,.5-.1.8c0,.2-.2.4-.3.6-.1.2-.3.4-.5.6-.2.2-.4.4-.6.5-.2.2-.4.3-.6.5s-.4.3-.5.4c-.2.1-.3.3-.4.4,0,.1-.1.3-.1.4h0s3.2,0,3.2,0v1Z"/>
      <path class="st2" d="M407.7,667.9v-1.1c.5.3.9.5,1.4.5s.9-.1,1.2-.4.4-.6.4-1-.1-.7-.4-.9c-.3-.2-.7-.3-1.3-.3s-.6,0-1.2,0l.3-3.7h3.5v1h-2.5v1.8c.1,0,.3,0,.5,0,.8,0,1.3.2,1.7.6.4.4.6.9.6,1.6s-.2,1.3-.7,1.7c-.5.4-1.1.6-1.9.6s-1.2,0-1.5-.3Z"/>
      <path class="st2" d="M413.3,667.9v-1.1c.5.3.9.5,1.4.5s.9-.1,1.2-.4.4-.6.4-1-.1-.7-.4-.9c-.3-.2-.7-.3-1.3-.3s-.6,0-1.2,0l.3-3.7h3.5v1h-2.5v1.8c.1,0,.3,0,.5,0,.8,0,1.3.2,1.7.6.4.4.6.9.6,1.6s-.2,1.3-.7,1.7c-.5.4-1.1.6-1.9.6s-1.2,0-1.5-.3Z"/>
    </g>
    <g>
      <path class="st2" d="M354.8,676.3v7.2h-1.1v-5.8c-.2.1-.4.3-.7.4-.2.1-.5.2-.8.3v-1c.2,0,.4-.1.6-.2s.4-.1.5-.2c.2,0,.3-.2.5-.3s.4-.2.5-.4h.5Z"/>
      <path class="st2" d="M358.6,683.7c-.7,0-1.3-.3-1.7-.9s-.6-1.5-.6-2.6.2-2.2.6-2.8c.4-.6,1.1-1,1.9-1,1.6,0,2.3,1.2,2.3,3.6s-.2,2.1-.7,2.7-1.1.9-1.8.9ZM358.7,677.3c-.9,0-1.3.9-1.3,2.8s.4,2.7,1.3,2.7,1.2-.9,1.2-2.7-.4-2.8-1.2-2.8Z"/>
      <path class="st2" d="M364.2,683.7c-.7,0-1.3-.3-1.7-.9s-.6-1.5-.6-2.6.2-2.2.6-2.8c.4-.6,1.1-1,1.9-1,1.6,0,2.3,1.2,2.3,3.6s-.2,2.1-.7,2.7-1.1.9-1.8.9ZM364.3,677.3c-.9,0-1.3.9-1.3,2.8s.4,2.7,1.3,2.7,1.2-.9,1.2-2.7-.4-2.8-1.2-2.8Z"/>
    </g>
    <path class="st2" d="M402.1,683.4v-1.1c.5.3.9.5,1.4.5s.9-.1,1.2-.4.4-.6.4-1-.1-.7-.4-.9c-.3-.2-.7-.3-1.3-.3s-.6,0-1.2,0l.3-3.7h3.5v1h-2.5v1.8c.1,0,.3,0,.5,0,.8,0,1.3.2,1.7.6.4.4.6.9.6,1.6s-.2,1.3-.7,1.7c-.5.4-1.1.6-1.9.6s-1.2,0-1.5-.3Z"/>
    <g>
      <path class="st2" d="M354.8,691.8v7.2h-1.1v-5.8c-.2.1-.4.3-.7.4-.2.1-.5.2-.8.3v-1c.2,0,.4-.1.6-.2s.4-.1.5-.2c.2,0,.3-.2.5-.3s.4-.2.5-.4h.5Z"/>
      <path class="st2" d="M358.6,699.2c-.7,0-1.3-.3-1.7-.9s-.6-1.5-.6-2.6.2-2.2.6-2.8c.4-.6,1.1-1,1.9-1,1.6,0,2.3,1.2,2.3,3.6s-.2,2.1-.7,2.7-1.1.9-1.8.9ZM358.7,692.8c-.9,0-1.3.9-1.3,2.8s.4,2.7,1.3,2.7,1.2-.9,1.2-2.7-.4-2.8-1.2-2.8Z"/>
      <path class="st2" d="M364.2,699.2c-.7,0-1.3-.3-1.7-.9s-.6-1.5-.6-2.6.2-2.2.6-2.8c.4-.6,1.1-1,1.9-1,1.6,0,2.3,1.2,2.3,3.6s-.2,2.1-.7,2.7-1.1.9-1.8.9ZM364.3,692.8c-.9,0-1.3.9-1.3,2.8s.4,2.7,1.3,2.7,1.2-.9,1.2-2.7-.4-2.8-1.2-2.8Z"/>
    </g>
    <g>
      <path class="st2" d="M406.3,699.1h-4.4v-.5c0-.2,0-.4,0-.6,0-.2.1-.4.3-.6s.2-.3.4-.5c.1-.2.3-.3.5-.4.2-.1.3-.3.5-.4.2-.1.3-.3.5-.4.2-.1.3-.3.4-.4.1-.1.2-.3.3-.4s.2-.3.2-.4c0-.1,0-.3,0-.5s0-.4,0-.5c0-.1-.1-.3-.2-.4-.1,0-.2-.2-.4-.2s-.3,0-.5,0c-.3,0-.6,0-.9.2s-.6.3-.9.6v-1.1c.1-.1.3-.2.4-.3.1,0,.3-.1.5-.2.2,0,.3,0,.5-.1s.4,0,.6,0c.3,0,.6,0,.9.1s.5.2.7.4.3.4.4.6c.1.2.2.5.2.8s0,.5-.1.8c0,.2-.2.4-.3.6-.1.2-.3.4-.5.6-.2.2-.4.4-.6.5-.2.2-.4.3-.6.5s-.4.3-.5.4c-.2.1-.3.3-.4.4,0,.1-.1.3-.1.4h0s3.2,0,3.2,0v1Z"/>
      <path class="st2" d="M409.7,699.2c-.7,0-1.3-.3-1.7-.9s-.6-1.5-.6-2.6.2-2.2.6-2.8c.4-.6,1.1-1,1.9-1,1.6,0,2.3,1.2,2.3,3.6s-.2,2.1-.7,2.7-1.1.9-1.8.9ZM409.8,692.8c-.9,0-1.3.9-1.3,2.8s.4,2.7,1.3,2.7,1.2-.9,1.2-2.7-.4-2.8-1.2-2.8Z"/>
    </g>
    <path class="st2" d="M354.5,714.7c-.7,0-1.3-.3-1.7-.9s-.6-1.5-.6-2.6.2-2.2.6-2.8c.4-.6,1.1-1,1.9-1,1.6,0,2.3,1.2,2.3,3.6s-.2,2.1-.7,2.7-1.1.9-1.8.9ZM354.6,708.3c-.9,0-1.3.9-1.3,2.8s.4,2.7,1.3,2.7,1.2-.9,1.2-2.7-.4-2.8-1.2-2.8Z"/>
    <g>
      <path class="st2" d="M347.4,667.8c-.5.2-1.2.4-2,.4s-1.9-.3-2.6-1c-.6-.6-.9-1.5-.9-2.6s.4-2.1,1-2.8c.7-.7,1.6-1.1,2.7-1.1s1.3,0,1.7.3v1.5c-.5-.3-1-.4-1.6-.4s-1.2.2-1.6.6-.6,1-.6,1.7.2,1.2.6,1.6c.4.4.9.6,1.6.6s1.2-.2,1.7-.5v1.5Z"/>
      <path class="st2" d="M349.2,664.6c-.3,0-.5,0-.6-.2-.2-.2-.3-.4-.3-.6s0-.4.3-.6c.2-.2.4-.2.7-.2s.5,0,.7.2c.2.2.3.3.3.6s0,.4-.3.6-.4.2-.7.2ZM349.2,668.2c-.3,0-.5,0-.6-.2-.2-.2-.3-.4-.3-.6s0-.4.3-.6.4-.2.7-.2.5,0,.7.2c.2.2.3.3.3.6s0,.4-.3.6-.4.2-.7.2Z"/>
    </g>
    <g>
      <path class="st2" d="M347,683.6h-1.6v-4.2c0-.5,0-1,0-1.5h0c0,.4-.2.7-.2.9l-1.7,4.8h-1.3l-1.7-4.8c0-.1-.1-.5-.2-1h0c0,.7,0,1.3,0,1.8v3.9h-1.4v-7.1h2.3l1.4,4.2c.1.3.2.7.3,1h0c0-.4.2-.7.3-1l1.4-4.2h2.3v7.1Z"/>
      <path class="st2" d="M349.2,680.1c-.3,0-.5,0-.6-.2-.2-.2-.3-.4-.3-.6s0-.4.3-.6c.2-.2.4-.2.7-.2s.5,0,.7.2c.2.2.3.3.3.6s0,.4-.3.6-.4.2-.7.2ZM349.2,683.7c-.3,0-.5,0-.6-.2-.2-.2-.3-.4-.3-.6s0-.4.3-.6.4-.2.7-.2.5,0,.7.2c.2.2.3.3.3.6s0,.4-.3.6-.4.2-.7.2Z"/>
    </g>
    <g>
      <path class="st2" d="M347.8,692l-2.3,4.6v2.5h-1.6v-2.5l-2.2-4.6h1.8l1.1,2.6s0,.2.2.6h0c0-.2,0-.4.2-.6l1.2-2.7h1.7Z"/>
      <path class="st2" d="M349.2,695.6c-.3,0-.5,0-.6-.2-.2-.2-.3-.4-.3-.6s0-.4.3-.6c.2-.2.4-.2.7-.2s.5,0,.7.2c.2.2.3.3.3.6s0,.4-.3.6-.4.2-.7.2ZM349.2,699.2c-.3,0-.5,0-.6-.2-.2-.2-.3-.4-.3-.6s0-.4.3-.6.4-.2.7-.2.5,0,.7.2c.2.2.3.3.3.6s0,.4-.3.6-.4.2-.7.2Z"/>
    </g>
    <g>
      <path class="st2" d="M347.9,714.6h-2l-2.1-3.1c0,0-.1-.2-.2-.4h0v3.5h-1.6v-7.1h1.6v3.3h0c0,0,.1-.2.2-.4l2-3h1.9l-2.5,3.4,2.7,3.7Z"/>
      <path class="st2" d="M349.2,711.1c-.3,0-.5,0-.6-.2-.2-.2-.3-.4-.3-.6s0-.4.3-.6c.2-.2.4-.2.7-.2s.5,0,.7.2c.2.2.3.3.3.6s0,.4-.3.6-.4.2-.7.2ZM349.2,714.7c-.3,0-.5,0-.6-.2-.2-.2-.3-.4-.3-.6s0-.4.3-.6.4-.2.7-.2.5,0,.7.2c.2.2.3.3.3.6s0,.4-.3.6-.4.2-.7.2Z"/>
    </g>
    <g>
      <path class="st2" d="M397.9,668.1h-1.8l-1.1-1.8c0-.1-.2-.3-.2-.4,0-.1-.2-.2-.2-.3,0,0-.2-.1-.2-.2,0,0-.2,0-.3,0h-.4v2.7h-1.6v-7.1h2.5c1.7,0,2.6.6,2.6,1.9s0,.5-.1.7c0,.2-.2.4-.3.6-.1.2-.3.3-.5.4s-.4.2-.7.3h0c.1,0,.2.1.3.2,0,0,.2.2.3.3,0,0,.2.2.3.3s.2.2.2.3l1.3,2.1ZM393.6,662.2v2h.7c.3,0,.6,0,.8-.3.2-.2.3-.4.3-.7,0-.6-.4-.9-1.1-.9h-.7Z"/>
      <path class="st2" d="M399.1,664.6c-.3,0-.5,0-.6-.2-.2-.2-.3-.4-.3-.6s0-.4.3-.6c.2-.2.4-.2.7-.2s.5,0,.7.2c.2.2.3.3.3.6s0,.4-.3.6-.4.2-.7.2ZM399.1,668.2c-.3,0-.5,0-.6-.2-.2-.2-.3-.4-.3-.6s0-.4.3-.6.4-.2.7-.2.5,0,.7.2c.2.2.3.3.3.6s0,.4-.3.6-.4.2-.7.2Z"/>
    </g>
    <g>
      <path class="st2" d="M397.2,683.1c-.7.4-1.6.6-2.6.6s-2-.3-2.7-.9c-.7-.6-1-1.5-1-2.6s.4-2,1.1-2.7c.7-.7,1.7-1.1,2.9-1.1s1.4.1,2,.3v1.5c-.5-.3-1.2-.5-2-.5s-1.2.2-1.6.6c-.4.4-.6,1-.6,1.7s.2,1.3.6,1.7.9.6,1.5.6.7,0,.9-.2v-1.4h-1.4v-1.3h3v3.6Z"/>
      <path class="st2" d="M399.1,680.1c-.3,0-.5,0-.6-.2-.2-.2-.3-.4-.3-.6s0-.4.3-.6c.2-.2.4-.2.7-.2s.5,0,.7.2c.2.2.3.3.3.6s0,.4-.3.6-.4.2-.7.2ZM399.1,683.7c-.3,0-.5,0-.6-.2-.2-.2-.3-.4-.3-.6s0-.4.3-.6.4-.2.7-.2.5,0,.7.2c.2.2.3.3.3.6s0,.4-.3.6-.4.2-.7.2Z"/>
    </g>
    <g>
      <path class="st2" d="M392.1,699.1v-7.1h2.6c.8,0,1.4.1,1.8.4s.6.7.6,1.2-.1.7-.4,1c-.3.3-.6.5-1,.6h0c.5,0,.9.3,1.2.6.3.3.5.7.5,1.1,0,.6-.2,1.2-.7,1.5-.5.4-1.1.6-1.9.6h-2.7ZM393.7,693.2v1.7h.7c.3,0,.6,0,.8-.2s.3-.4.3-.7c0-.5-.4-.8-1.2-.8h-.6ZM393.7,696v1.9h.9c.4,0,.7,0,.9-.3.2-.2.3-.4.3-.7s-.1-.5-.3-.7-.5-.2-.9-.2h-.9Z"/>
      <path class="st2" d="M399.1,695.6c-.3,0-.5,0-.6-.2-.2-.2-.3-.4-.3-.6s0-.4.3-.6c.2-.2.4-.2.7-.2s.5,0,.7.2c.2.2.3.3.3.6s0,.4-.3.6-.4.2-.7.2ZM399.1,699.2c-.3,0-.5,0-.6-.2-.2-.2-.3-.4-.3-.6s0-.4.3-.6.4-.2.7-.2.5,0,.7.2c.2.2.3.3.3.6s0,.4-.3.6-.4.2-.7.2Z"/>
    </g>
    <g>
      <path class="st2" d="M344.7,730l-.2.7h-1.1l-.3,1.4h1.2l-.2.7h-1.2l-.4,1.8h-.8l.4-1.8h-1.2l-.4,1.8h-.8l.4-1.8h-1.1v-.7h1.3l.3-1.4h-1.2v-.7h1.3l.4-1.9h.8l-.4,1.9h1.2l.4-1.9h.8l-.4,1.9h1.1ZM342.7,730.7h-1.2l-.3,1.4h1.2l.3-1.4Z"/>
      <path class="st2" d="M350.3,735.2h-1.1v-.9h0c-.4.7-.9,1-1.7,1s-1.1-.2-1.5-.7-.6-1.1-.6-1.8.2-1.5.6-2,1-.8,1.7-.8,1.2.3,1.5.8h0v-3.1h1.1v7.5ZM349.1,732.9v-.7c0-.4-.1-.7-.4-.9-.2-.2-.5-.4-.9-.4s-.8.2-1,.5c-.2.3-.4.8-.4,1.3s.1.9.4,1.2.6.4,1,.4.7-.1,1-.4c.2-.3.4-.7.4-1.1Z"/>
      <path class="st2" d="M356.4,735.2h-1.1v-.9h0c-.4.7-.9,1-1.7,1s-1.1-.2-1.5-.7-.6-1.1-.6-1.8.2-1.5.6-2,1-.8,1.7-.8,1.2.3,1.5.8h0v-3.1h1.1v7.5ZM355.2,732.9v-.7c0-.4-.1-.7-.4-.9-.2-.2-.5-.4-.9-.4s-.8.2-1,.5c-.2.3-.4.8-.4,1.3s.1.9.4,1.2.6.4,1,.4.7-.1,1-.4c.2-.3.4-.7.4-1.1Z"/>
      <path class="st2" d="M359.9,735.3c-.7,0-1.3-.3-1.7-.9s-.6-1.5-.6-2.6.2-2.2.6-2.8c.4-.6,1.1-1,1.9-1,1.6,0,2.3,1.2,2.3,3.6s-.2,2.1-.7,2.7-1.1.9-1.8.9ZM360,728.9c-.9,0-1.3.9-1.3,2.8s.4,2.7,1.3,2.7,1.2-.9,1.2-2.7-.4-2.8-1.2-2.8Z"/>
      <path class="st2" d="M365.5,735.3c-.7,0-1.3-.3-1.7-.9s-.6-1.5-.6-2.6.2-2.2.6-2.8c.4-.6,1.1-1,1.9-1,1.6,0,2.3,1.2,2.3,3.6s-.2,2.1-.7,2.7-1.1.9-1.8.9ZM365.6,728.9c-.9,0-1.3.9-1.3,2.8s.4,2.7,1.3,2.7,1.2-.9,1.2-2.7-.4-2.8-1.2-2.8Z"/>
      <path class="st2" d="M371.1,735.3c-.7,0-1.3-.3-1.7-.9s-.6-1.5-.6-2.6.2-2.2.6-2.8c.4-.6,1.1-1,1.9-1,1.6,0,2.3,1.2,2.3,3.6s-.2,2.1-.7,2.7-1.1.9-1.8.9ZM371.2,728.9c-.9,0-1.3.9-1.3,2.8s.4,2.7,1.3,2.7,1.2-.9,1.2-2.7-.4-2.8-1.2-2.8Z"/>
      <path class="st2" d="M376.7,735.3c-.7,0-1.3-.3-1.7-.9s-.6-1.5-.6-2.6.2-2.2.6-2.8c.4-.6,1.1-1,1.9-1,1.6,0,2.3,1.2,2.3,3.6s-.2,2.1-.7,2.7-1.1.9-1.8.9ZM376.8,728.9c-.9,0-1.3.9-1.3,2.8s.4,2.7,1.3,2.7,1.2-.9,1.2-2.7-.4-2.8-1.2-2.8Z"/>
    </g>
    <rect class="st1" x="177.5" y="553.3" width="78.9" height="78.9"/>
    <path class="st2" d="M193,668.2c-.7,0-1.3-.3-1.7-.9-.4-.6-.6-1.5-.6-2.6s.2-2.2.6-2.8c.4-.6,1.1-1,1.9-1,1.6,0,2.3,1.2,2.3,3.6s-.2,2.1-.7,2.7c-.4.6-1.1.9-1.8.9ZM193.1,661.8c-.9,0-1.3.9-1.3,2.8s.4,2.7,1.3,2.7,1.2-.9,1.2-2.7-.4-2.8-1.2-2.8Z"/>
    <g>
      <path class="st2" d="M244.8,668.1h-4.4v-.5c0-.2,0-.4,0-.6,0-.2.1-.4.3-.6.1-.2.2-.3.4-.5.1-.2.3-.3.5-.4.2-.1.3-.3.5-.4.2-.1.3-.3.5-.4.2-.1.3-.3.4-.4.1-.1.2-.3.3-.4,0-.1.2-.3.2-.4s0-.3,0-.5,0-.4,0-.5c0-.1-.1-.3-.2-.4-.1,0-.2-.2-.4-.2s-.3,0-.5,0c-.3,0-.6,0-.9.2s-.6.3-.9.6v-1.1c.1-.1.3-.2.4-.3.1,0,.3-.1.5-.2.2,0,.3,0,.5-.1.2,0,.4,0,.6,0,.3,0,.6,0,.9.1s.5.2.7.4c.2.2.3.4.4.6.1.2.2.5.2.8s0,.5-.1.8c0,.2-.2.4-.3.6-.1.2-.3.4-.5.6-.2.2-.4.4-.6.5-.2.2-.4.3-.6.5-.2.1-.4.3-.5.4-.2.1-.3.3-.4.4,0,.1-.1.3-.1.4h0s3.2,0,3.2,0v1Z"/>
      <path class="st2" d="M246.3,667.9v-1.1c.5.3.9.5,1.4.5s.9-.1,1.2-.4c.3-.2.4-.6.4-1s-.1-.7-.4-.9c-.3-.2-.7-.3-1.3-.3s-.6,0-1.2,0l.3-3.7h3.5v1h-2.5v1.8c.1,0,.3,0,.5,0,.8,0,1.3.2,1.7.6.4.4.6.9.6,1.6s-.2,1.3-.7,1.7c-.5.4-1.1.6-1.9.6s-1.2,0-1.5-.3Z"/>
      <path class="st2" d="M251.9,667.9v-1.1c.5.3.9.5,1.4.5s.9-.1,1.2-.4c.3-.2.4-.6.4-1s-.1-.7-.4-.9c-.3-.2-.7-.3-1.3-.3s-.6,0-1.2,0l.3-3.7h3.5v1h-2.5v1.8c.1,0,.3,0,.5,0,.8,0,1.3.2,1.7.6.4.4.6.9.6,1.6s-.2,1.3-.7,1.7c-.5.4-1.1.6-1.9.6s-1.2,0-1.5-.3Z"/>
    </g>
    <g>
      <path class="st2" d="M193.3,676.3v7.2h-1.1v-5.8c-.2.1-.4.3-.7.4-.2.1-.5.2-.8.3v-1c.2,0,.4-.1.6-.2.2,0,.4-.1.5-.2.2,0,.3-.2.5-.3s.4-.2.5-.4h.5Z"/>
      <path class="st2" d="M197.1,683.7c-.7,0-1.3-.3-1.7-.9-.4-.6-.6-1.5-.6-2.6s.2-2.2.6-2.8c.4-.6,1.1-1,1.9-1,1.6,0,2.3,1.2,2.3,3.6s-.2,2.1-.7,2.7c-.4.6-1.1.9-1.8.9ZM197.2,677.3c-.9,0-1.3.9-1.3,2.8s.4,2.7,1.3,2.7,1.2-.9,1.2-2.7-.4-2.8-1.2-2.8Z"/>
    </g>
    <g>
      <path class="st2" d="M244.8,683.6h-4.4v-.5c0-.2,0-.4,0-.6,0-.2.1-.4.3-.6.1-.2.2-.3.4-.5.1-.2.3-.3.5-.4.2-.1.3-.3.5-.4.2-.1.3-.3.5-.4.2-.1.3-.3.4-.4.1-.1.2-.3.3-.4,0-.1.2-.3.2-.4s0-.3,0-.5,0-.4,0-.5c0-.1-.1-.3-.2-.4-.1,0-.2-.2-.4-.2s-.3,0-.5,0c-.3,0-.6,0-.9.2s-.6.3-.9.6v-1.1c.1-.1.3-.2.4-.3.1,0,.3-.1.5-.2.2,0,.3,0,.5-.1.2,0,.4,0,.6,0,.3,0,.6,0,.9.1s.5.2.7.4c.2.2.3.4.4.6.1.2.2.5.2.8s0,.5-.1.8c0,.2-.2.4-.3.6-.1.2-.3.4-.5.6-.2.2-.4.4-.6.5-.2.2-.4.3-.6.5-.2.1-.4.3-.5.4-.2.1-.3.3-.4.4,0,.1-.1.3-.1.4h0s3.2,0,3.2,0v1Z"/>
      <path class="st2" d="M250.4,683.6h-4.4v-.5c0-.2,0-.4,0-.6,0-.2.1-.4.3-.6.1-.2.2-.3.4-.5.1-.2.3-.3.5-.4.2-.1.3-.3.5-.4.2-.1.3-.3.5-.4.2-.1.3-.3.4-.4.1-.1.2-.3.3-.4,0-.1.2-.3.2-.4s0-.3,0-.5,0-.4,0-.5c0-.1-.1-.3-.2-.4-.1,0-.2-.2-.4-.2s-.3,0-.5,0c-.3,0-.6,0-.9.2s-.6.3-.9.6v-1.1c.1-.1.3-.2.4-.3.1,0,.3-.1.5-.2.2,0,.3,0,.5-.1.2,0,.4,0,.6,0,.3,0,.6,0,.9.1s.5.2.7.4c.2.2.3.4.4.6.1.2.2.5.2.8s0,.5-.1.8c0,.2-.2.4-.3.6-.1.2-.3.4-.5.6-.2.2-.4.4-.6.5-.2.2-.4.3-.6.5-.2.1-.4.3-.5.4-.2.1-.3.3-.4.4,0,.1-.1.3-.1.4h0s3.2,0,3.2,0v1Z"/>
      <path class="st2" d="M253.8,683.7c-.7,0-1.3-.3-1.7-.9-.4-.6-.6-1.5-.6-2.6s.2-2.2.6-2.8c.4-.6,1.1-1,1.9-1,1.6,0,2.3,1.2,2.3,3.6s-.2,2.1-.7,2.7c-.4.6-1.1.9-1.8.9ZM254,677.3c-.9,0-1.3.9-1.3,2.8s.4,2.7,1.3,2.7,1.2-.9,1.2-2.7-.4-2.8-1.2-2.8Z"/>
    </g>
    <g>
      <path class="st2" d="M193.3,691.9v7.2h-1.1v-5.8c-.2.1-.4.3-.7.4-.2.1-.5.2-.8.3v-1c.2,0,.4-.1.6-.2.2,0,.4-.1.5-.2.2,0,.3-.2.5-.3s.4-.2.5-.4h.5Z"/>
      <path class="st2" d="M197.1,699.2c-.7,0-1.3-.3-1.7-.9-.4-.6-.6-1.5-.6-2.6s.2-2.2.6-2.8c.4-.6,1.1-1,1.9-1,1.6,0,2.3,1.2,2.3,3.6s-.2,2.1-.7,2.7c-.4.6-1.1.9-1.8.9ZM197.2,692.8c-.9,0-1.3.9-1.3,2.8s.4,2.7,1.3,2.7,1.2-.9,1.2-2.7-.4-2.8-1.2-2.8Z"/>
      <path class="st2" d="M202.7,699.2c-.7,0-1.3-.3-1.7-.9-.4-.6-.6-1.5-.6-2.6s.2-2.2.6-2.8c.4-.6,1.1-1,1.9-1,1.6,0,2.3,1.2,2.3,3.6s-.2,2.1-.7,2.7c-.4.6-1.1.9-1.8.9ZM202.8,692.8c-.9,0-1.3.9-1.3,2.8s.4,2.7,1.3,2.7,1.2-.9,1.2-2.7-.4-2.8-1.2-2.8Z"/>
    </g>
    <path class="st2" d="M242.6,699.2c-.7,0-1.3-.3-1.7-.9-.4-.6-.6-1.5-.6-2.6s.2-2.2.6-2.8c.4-.6,1.1-1,1.9-1,1.6,0,2.3,1.2,2.3,3.6s-.2,2.1-.7,2.7c-.4.6-1.1.9-1.8.9ZM242.7,692.8c-.9,0-1.3.9-1.3,2.8s.4,2.7,1.3,2.7,1.2-.9,1.2-2.7-.4-2.8-1.2-2.8Z"/>
    <path class="st2" d="M193,714.7c-.7,0-1.3-.3-1.7-.9-.4-.6-.6-1.5-.6-2.6s.2-2.2.6-2.8c.4-.6,1.1-1,1.9-1,1.6,0,2.3,1.2,2.3,3.6s-.2,2.1-.7,2.7c-.4.6-1.1.9-1.8.9ZM193.1,708.3c-.9,0-1.3.9-1.3,2.8s.4,2.7,1.3,2.7,1.2-.9,1.2-2.7-.4-2.8-1.2-2.8Z"/>
    <g>
      <path class="st2" d="M185.9,667.8c-.5.2-1.2.4-2,.4s-1.9-.3-2.6-1c-.6-.6-.9-1.5-.9-2.6s.3-2.1,1-2.8c.7-.7,1.6-1.1,2.7-1.1s1.3,0,1.7.3v1.5c-.5-.3-1-.4-1.6-.4s-1.2.2-1.6.6c-.4.4-.6,1-.6,1.7s.2,1.2.6,1.6c.4.4.9.6,1.6.6s1.2-.2,1.7-.5v1.5Z"/>
      <path class="st2" d="M187.7,664.6c-.3,0-.5,0-.6-.2-.2-.2-.3-.4-.3-.6s0-.4.3-.6c.2-.2.4-.2.7-.2s.5,0,.7.2c.2.2.3.3.3.6s0,.4-.3.6-.4.2-.7.2ZM187.7,668.2c-.3,0-.5,0-.6-.2-.2-.2-.3-.4-.3-.6s0-.4.3-.6.4-.2.7-.2.5,0,.7.2c.2.2.3.3.3.6s0,.4-.3.6-.4.2-.7.2Z"/>
    </g>
    <g>
      <path class="st2" d="M186.4,692l-2.3,4.6v2.5h-1.6v-2.5l-2.2-4.6h1.8l1.1,2.6s0,.2.2.6h0c0-.2,0-.4.2-.6l1.2-2.7h1.7Z"/>
      <path class="st2" d="M187.7,695.6c-.3,0-.5,0-.6-.2-.2-.2-.3-.4-.3-.6s0-.4.3-.6c.2-.2.4-.2.7-.2s.5,0,.7.2c.2.2.3.3.3.6s0,.4-.3.6-.4.2-.7.2ZM187.7,699.2c-.3,0-.5,0-.6-.2-.2-.2-.3-.4-.3-.6s0-.4.3-.6.4-.2.7-.2.5,0,.7.2c.2.2.3.3.3.6s0,.4-.3.6-.4.2-.7.2Z"/>
    </g>
    <g>
      <path class="st2" d="M186.5,714.6h-2l-2.1-3.1c0,0-.1-.2-.2-.4h0v3.5h-1.6v-7.1h1.6v3.3h0c0,0,.1-.2.2-.4l2-3h1.9l-2.5,3.4,2.7,3.7Z"/>
      <path class="st2" d="M187.7,711.1c-.3,0-.5,0-.6-.2-.2-.2-.3-.4-.3-.6s0-.4.3-.6c.2-.2.4-.2.7-.2s.5,0,.7.2c.2.2.3.3.3.6s0,.4-.3.6-.4.2-.7.2ZM187.7,714.7c-.3,0-.5,0-.6-.2-.2-.2-.3-.4-.3-.6s0-.4.3-.6.4-.2.7-.2.5,0,.7.2c.2.2.3.3.3.6s0,.4-.3.6-.4.2-.7.2Z"/>
    </g>
    <g>
      <path class="st2" d="M236.4,668.1h-1.8l-1.1-1.8c0-.1-.2-.3-.2-.4,0-.1-.2-.2-.2-.3,0,0-.2-.1-.2-.2,0,0-.2,0-.3,0h-.4v2.7h-1.6v-7.1h2.5c1.7,0,2.6.6,2.6,1.9s0,.5-.1.7-.2.4-.3.6-.3.3-.5.4-.4.2-.7.3h0c.1,0,.2.1.3.2s.2.2.3.3c0,0,.2.2.3.3s.2.2.2.3l1.3,2.1ZM232.1,662.2v2h.7c.3,0,.6,0,.8-.3.2-.2.3-.4.3-.7,0-.6-.4-.9-1.1-.9h-.7Z"/>
      <path class="st2" d="M237.7,664.6c-.3,0-.5,0-.6-.2-.2-.2-.3-.4-.3-.6s0-.4.3-.6c.2-.2.4-.2.7-.2s.5,0,.7.2c.2.2.3.3.3.6s0,.4-.3.6-.4.2-.7.2ZM237.7,668.2c-.3,0-.5,0-.6-.2-.2-.2-.3-.4-.3-.6s0-.4.3-.6.4-.2.7-.2.5,0,.7.2c.2.2.3.3.3.6s0,.4-.3.6-.4.2-.7.2Z"/>
    </g>
    <g>
      <path class="st2" d="M235.7,683.1c-.7.4-1.6.6-2.6.6s-2-.3-2.7-.9c-.7-.6-1-1.5-1-2.6s.4-2,1.1-2.7c.7-.7,1.7-1.1,2.9-1.1s1.4.1,2,.3v1.5c-.5-.3-1.2-.5-2-.5s-1.2.2-1.6.6-.6,1-.6,1.7.2,1.3.6,1.7c.4.4.9.6,1.5.6s.7,0,.9-.2v-1.4h-1.4v-1.3h3v3.6Z"/>
      <path class="st2" d="M237.7,680.1c-.3,0-.5,0-.6-.2-.2-.2-.3-.4-.3-.6s0-.4.3-.6c.2-.2.4-.2.7-.2s.5,0,.7.2c.2.2.3.3.3.6s0,.4-.3.6-.4.2-.7.2ZM237.7,683.7c-.3,0-.5,0-.6-.2-.2-.2-.3-.4-.3-.6s0-.4.3-.6.4-.2.7-.2.5,0,.7.2c.2.2.3.3.3.6s0,.4-.3.6-.4.2-.7.2Z"/>
    </g>
    <g>
      <path class="st2" d="M230.6,699.1v-7.1h2.6c.8,0,1.4.1,1.8.4.4.3.6.7.6,1.2s-.1.7-.4,1c-.3.3-.6.5-1,.6h0c.5,0,.9.3,1.2.6.3.3.5.7.5,1.1,0,.6-.2,1.2-.7,1.5-.5.4-1.1.6-1.9.6h-2.7ZM232.2,693.2v1.7h.7c.3,0,.6,0,.8-.2s.3-.4.3-.7c0-.5-.4-.8-1.2-.8h-.6ZM232.2,696.1v1.9h.9c.4,0,.7,0,.9-.3.2-.2.3-.4.3-.7s-.1-.5-.3-.7c-.2-.2-.5-.2-.9-.2h-.9Z"/>
      <path class="st2" d="M237.7,695.6c-.3,0-.5,0-.6-.2-.2-.2-.3-.4-.3-.6s0-.4.3-.6c.2-.2.4-.2.7-.2s.5,0,.7.2c.2.2.3.3.3.6s0,.4-.3.6-.4.2-.7.2ZM237.7,699.2c-.3,0-.5,0-.6-.2-.2-.2-.3-.4-.3-.6s0-.4.3-.6.4-.2.7-.2.5,0,.7.2c.2.2.3.3.3.6s0,.4-.3.6-.4.2-.7.2Z"/>
    </g>
    <path class="st2" d="M183.1,730l-.2.7h-1.1l-.3,1.4h1.2l-.2.7h-1.2l-.4,1.8h-.8l.4-1.8h-1.2l-.4,1.8h-.8l.4-1.8h-1.1v-.7h1.3l.3-1.4h-1.2v-.7h1.3l.4-1.9h.8l-.4,1.9h1.2l.4-1.9h.8l-.4,1.9h1.1ZM181,730.7h-1.2l-.3,1.4h1.2l.3-1.4ZM184.4,730.1v-.3c0-.3,0-.6.1-.8,0-.3.2-.5.4-.7.2-.2.4-.3.6-.4.2-.1.5-.2.8-.2s.3,0,.5,0c.1,0,.3,0,.4,0v1c-.1,0-.2,0-.3,0-.1,0-.2,0-.4,0-.3,0-.5.1-.7.3-.2.2-.2.5-.2.9v.2h2.1v-.7c0-.3,0-.5.1-.7,0-.2.2-.4.4-.6s.4-.3.6-.4c.2,0,.5-.1.8-.1s.3,0,.4,0c.1,0,.2,0,.3,0v1c-.2,0-.4-.1-.6-.1-.5,0-.8.3-.8.9v.7h1.2v.9h-1.2v4.1h-1.2v-4.1h-2.1v4.1h-1.2v-4.1h-.9v-.9h.9ZM195.5,735.2h-1.1v-.9h0c-.4.7-.9,1-1.7,1s-1.1-.2-1.5-.7c-.4-.5-.6-1.1-.6-1.8s.2-1.5.6-2c.4-.5,1-.8,1.7-.8s1.2.3,1.5.8h0v-3.1h1.1v7.5ZM194.3,732.9v-.7c0-.4-.1-.7-.4-.9-.2-.3-.5-.4-.9-.4s-.8.2-1,.5c-.2.3-.4.8-.4,1.3s.1.9.4,1.2c.2.3.6.4,1,.4s.7-.1,1-.4c.2-.3.4-.7.4-1.1ZM201.6,735.2h-1.1v-.9h0c-.4.7-.9,1-1.7,1s-1.1-.2-1.5-.7c-.4-.5-.6-1.1-.6-1.8s.2-1.5.6-2c.4-.5,1-.8,1.7-.8s1.2.3,1.5.8h0v-3.1h1.1v7.5ZM200.4,732.9v-.7c0-.4-.1-.7-.4-.9-.2-.3-.5-.4-.9-.4s-.8.2-1,.5c-.2.3-.4.8-.4,1.3s.1.9.4,1.2c.2.3.6.4,1,.4s.7-.1,1-.4c.2-.3.4-.7.4-1.1ZM205,735.3c-.7,0-1.3-.3-1.7-.9-.4-.6-.6-1.5-.6-2.6s.2-2.2.6-2.8c.4-.6,1.1-1,1.9-1,1.6,0,2.3,1.2,2.3,3.6s-.2,2.1-.7,2.7c-.4.6-1.1.9-1.8.9ZM206.4,731.7c0-1.9-.4-2.8-1.2-2.8s-1.3.9-1.3,2.8.4,2.7,1.3,2.7,1.2-.9,1.2-2.7h0ZM210.7,735.3c-.7,0-1.3-.3-1.7-.9-.4-.6-.6-1.5-.6-2.6s.2-2.2.6-2.8c.4-.6,1.1-1,1.9-1,1.6,0,2.3,1.2,2.3,3.6s-.2,2.1-.7,2.7c-.4.6-1.1.9-1.8.9ZM212,731.7c0-1.9-.4-2.8-1.2-2.8s-1.3.9-1.3,2.8.4,2.7,1.3,2.7,1.2-.9,1.2-2.7h0Z"/>
    <g>
      <path class="st2" d="M185.5,683.6h-1.6v-4.2c0-.5,0-1,0-1.5h0c0,.4-.2.7-.2.9l-1.7,4.8h-1.3l-1.7-4.8c0-.1-.1-.5-.2-1h0c0,.7,0,1.3,0,1.8v3.9h-1.4v-7.1h2.3l1.4,4.2c.1.3.2.7.3,1h0c0-.4.2-.7.3-1l1.4-4.2h2.3v7.1Z"/>
      <path class="st2" d="M187.7,680.1c-.3,0-.5,0-.6-.2-.2-.2-.3-.4-.3-.6s0-.4.3-.6c.2-.2.4-.2.7-.2s.5,0,.7.2c.2.2.3.3.3.6s0,.4-.3.6-.4.2-.7.2ZM187.7,683.7c-.3,0-.5,0-.6-.2-.2-.2-.3-.4-.3-.6s0-.4.3-.6.4-.2.7-.2.5,0,.7.2c.2.2.3.3.3.6s0,.4-.3.6-.4.2-.7.2Z"/>
    </g>
  </g>
  <path class="st0" d="M453.8,132.2c-.1,0-.7-1.4-.8-1.6-.3-.5-.6-1-.9-1.5-.6-1-1.3-1.9-2-2.8-2.3-2.7-5.1-4.9-8.2-6.6-3.5-2-7.4-3.5-11.4-4.4-2.4-.5-4.8-.7-7.1-1.5-.8-.3-1.6-.6-2.4-1-1.2-.6-2.3-1.4-3.3-2.4-.4-.4-.7-.8-.9-1.2,0-.1,0-.2-.1-.3h0c-.1-.3-.2-.7-.4-1-.3-.4-.7-.7-1.1-.9-.3-.1-.6-.2-.9-.2h-233.5c-.3,0-.6,0-.9.2-.5.2-.8.5-1.1.9-.2.3-.3.7-.4,1h0c0,.1,0,.2-.1.3-.2.5-.6.9-.9,1.2-.9,1-2.1,1.8-3.3,2.4-.8.4-1.6.8-2.4,1-2.3.8-4.7,1-7.1,1.5-4,.9-7.9,2.3-11.4,4.4-3.1,1.7-5.9,3.9-8.2,6.6-.7.9-1.4,1.8-2,2.8-.3.5-.6,1-.9,1.5,0,.2-.6,1.6-.8,1.6,0,0-27.2,3.4-29.9,11.3v48.8s6.2,2.5,22.4.8c0,0,5.9-.8,17.3-1.2,0,0,8-.5,11.7-5.4h0s3.6,0,7.2,3.4c2.2,2.1,4.9,4.6,6.6,6.2v86.6c1.1,23.1,7.4,42.3,17.7,58.9,2.2,3.5,4.5,6.9,7,10.1.9,1.3,1.9,2.6,2.9,3.8.1.1.2.3.3.4,1.3,1.7,2.7,3.3,4,4.9,0,.1.2.2.3.3,1.4,1.6,2.9,3.2,4.3,4.8,0,0,.2.2.3.3,1.5,1.6,3.1,3.2,4.7,4.8,0,0,.1.1.2.2,1.6,1.6,3.3,3.2,5,4.8,0,0,0,0,0,0,19.2,17.6,43.1,32.8,69.1,48.2.3.2.7.4,1,.6l.5.3h0c-.5-.3-1-.6-1.5-.9-1-.6-2-1.2-3-1.8,1.4.8,2.8,1.6,4.1,2.5l.3.2h0c.8.5,1.6.9,2.4,1.4l.5.3c.2,0,.4.1.5.1.2,0,.4,0,.5-.1l.5-.3c.8-.5,1.6-.9,2.4-1.4h0s.3-.2.3-.2h0c26.9-15.9,51.6-31.5,71.3-49.8,23.6-20.7,40.1-45,44.2-77.9.7-4.7,1.2-9.6,1.4-14.6v-6c.1,0,.1-46.8.1-46.8v-33.8c1.7-1.6,4.4-4.2,6.6-6.3,3.6-3.4,7.2-3.4,7.2-3.4h0c3.7,4.9,11.8,5.4,11.8,5.4,11.4.3,17.3,1.2,17.3,1.2,16.1,1.7,22.4-.8,22.4-.8v-48.8c-2.7-7.9-29.9-11.3-29.9-11.3Z"/>
  <rect class="st3" x="189.5" y="174" width="16.3" height="16.3"/>
  <path class="st3" d="M215.2,161.8c2.5-.5,5.1-1.3,7.6-1.8v-16.3h-14.7v5.7h6.7c0,0,0,6.3,0,6.3-1.7.4-2.7.4-4.8.3-3-.2-4.9-1.3-6.5-3.4-1.5-1.9-2.1-4.1-2.1-7.6,0-8.1,5.5-10.7,9.2-10.8,3.8,0,8.4,1.1,11.5,4.7h1c0-4.5,0-6.2,0-7.7-2.4-1.3-7.7-3-12.3-2.9-4.8.2-17.7.9-18.4,16.2-.2,5.3.7,19.8,22.9,17.3Z"/>
  <path class="st3" d="M123.6,179.3l6.6-3.1-.2-29.7-5.2,2.1c-.7,3-3.5,6.3-5.2,6.3v5.2l3.7-2.3.3,21.6Z"/>
  <path class="st3" d="M156,150.8c1.7-.8,2.7-1.9,4-3.5v2c0,1.7,0,2.8-.2,3.3-.3,1.4-.6,2-1.6,2.4-1.4.6-1.3-1.5-1.3-3.3l-6.5,2.8c0,2.8-.3,4.9,2.1,6.7,1.1.8,3.4.4,6.2-1,3.2-1.5,5.1-3.8,6.3-6.9.9-2.2,1.3-5.2,1.3-9v-7.9c.1-7-2.6-9.3-8.1-6.7-3.3,1.5-5.7,3.6-7.1,6.2-1.2,2.2-1.4,5.2-1.4,8.8,0,6,2,8,6.3,6.1ZM156.4,137.5s0-1.5,1.8-2.2c0,0,1.5-.4,1.5,1.5v5c0,.7-.3,1.4-.7,1.9-.4.5-1.1,1.2-1.9.8-.4-.2-.7-.6-.7-1.1v-5.9Z"/>
  <path class="st3" d="M153.2,178.3c-1.6-1.1-2.2-1.3-4.1-1.8-1.4-.4-2.8-.7-4-1.4-2.1-1.3-3.5-3.6-3.6-6.1v-8.4c0-.6,0-1.2,0-1.8,0-4.2,0-8.3,0-12.5,0-1.5,0-2.6,0-3.8v-7h0s0,0,0,0c-2.4,1.4-3.2,3.2-3.2,3.3,0,0,0,0,0,0,0,0,0,2.9,0,5.4,0,.3,0,.6,0,.9v24.8c0,1.4,0,2.8.6,4.1.9,2.2,2.8,3.4,4.7,4.7.8.5,1.7.8,2.6,1.3.8.4,2.2,1.3,1.4,2.5-.4.6-1.2.8-1.9.9-.7.1-1.4,0-2.1.1,0,0-11.3.3-17.4,1.2-2.7.4-3.2,1.5-3.5,3.3,0,0,12.9-1.5,22-1.4,1.8,0,2.6,0,4.4-.2,1,0,1.9-.3,2.8-.6.2,0,.8-.3,1-.4.7-.3,1.2-.7,1.6-1.3.6-.9.6-2.1.4-3.1-.2-1-1-2.2-1.8-2.8Z"/>
  <path class="st3" d="M413.7,113.5c0-.3-.1-.5-.3-.8-.3-.4-.6-.7-1.1-.9-.3-.1-.5-.2-.8-.2h-227.8c-.3,0-.6,0-.8.2-.4.2-.8.5-1.1.9-.2.2-.2.5-.3.8,0,.1,0,.3,0,.4v162.9c0,72.7,51.8,107.9,115.1,145.2l.5.3c.3.2.7.2,1.1,0l.5-.3c1.7-1,3.4-2,5.1-3,0,0,0,0,0,0,55.4-32.4,101.2-63.5,108.5-121.6,1-6.5,1.5-13.4,1.5-20.6V114c0-.2,0-.3,0-.4ZM185.4,115.7h224.4v50.3h-224.4v-50.3ZM295.6,169.9v24.5h-24.5v-24.5h24.5ZM267,169.9v24.5h-24.5v-24.5h24.5ZM214,222.9v-24.5h24.5v24.5h-24.5ZM238.5,227.1v24.5h-24.5v-24.5h24.5ZM214,194.4v-24.5h24.5v24.5h-24.5ZM185.4,169.9h24.5v24.5h-24.5v-24.5ZM185.4,198.5h24.5v24.5h-24.5v-24.5ZM185.4,227.1h24.5v24.5h-24.5v-24.5ZM185.4,255.6h24.5v24.5h-24.5v-24.5ZM300.7,415.6c-.5.3-1,0-1-.6v-78.7c-.3-.1-.5-.2-.9,0-.5.1-.9.4-1.3.6-.6.3-1.2.6-1.8.9v77.3c0,.5-.6.9-1,.6-58.2-34.1-105.7-66.7-109.1-130.8,0-.4.3-.7.7-.7h48.9c0-.1,0-.2-.1-.3-.4-1.2-.7-2.4-1-3.6h-20.1v-24.5h24.4c.9-3.9,2.3-7.6,4.2-11.1v-17.4h15.6c1.9-1.4,3.9-2.8,5.8-4.1h-21.4v-24.5h24.5v22.6c1.3-.8,2.7-1.6,4.1-2.3v-20.3h24.5v14.7c1.9.4,2.9,1.3,3.4,2.3,0,0,0,0,0,0,0,0,.4.7.6,1.7v-45.4h0v-1.2c0-.4.3-.7.7-.7h108.8c.4,0,.7.3.7.7v1.1h0v107.6c0,.4-.3.7-.7.7h-47.7c-.1,1.3-.4,2.5-.6,3.8,0,0,0,.1,0,.2h48.5c.4,0,.7.3.7.7-3.3,64.2-51,96.7-109.3,130.8Z"/>
  <g>
    <path class="st4" d="M157.1,144.5c.8.4,1.5-.3,1.9-.8.4-.5.7-1.2.7-1.9v-5c0-1.9-1.5-1.5-1.5-1.5-1.8.7-1.8,2.2-1.8,2.2v5.9c0,.5.3.9.7,1.1Z"/>
    <polygon class="st4" points="422.4 173.4 422.4 173.4 422.4 173.4 422.4 173.4"/>
    <path class="st4" d="M301.1,425.3l.3-.2s0,0,0,0l-.3.2Z"/>
    <polygon class="st4" points="172.8 173.4 172.8 173.4 172.8 173.4 172.8 173.4"/>
    <path class="st4" d="M453.8,132.2c-.1,0-.7-1.4-.8-1.6-.3-.5-.6-1-.9-1.5-.6-1-1.3-1.9-2-2.8-2.3-2.7-5.1-4.9-8.2-6.6-3.5-2-7.4-3.5-11.4-4.4-2.4-.5-4.8-.7-7.1-1.5-.8-.3-1.6-.6-2.4-1-1.2-.6-2.3-1.4-3.3-2.4-.4-.4-.7-.8-.9-1.2,0-.1,0-.2-.1-.3h0c-.1-.3-.2-.7-.4-1-.3-.4-.7-.7-1.1-.9-.3-.1-.6-.2-.9-.2h-233.5c-.3,0-.6,0-.9.2-.5.2-.8.5-1.1.9-.2.3-.3.7-.4,1h0c0,.1,0,.2-.1.3-.2.5-.6.9-.9,1.2-.9,1-2.1,1.8-3.3,2.4-.8.4-1.6.8-2.4,1-2.3.8-4.7,1-7.1,1.5-4,.9-7.9,2.3-11.4,4.4-3.1,1.7-5.9,3.9-8.2,6.6-.7.9-1.4,1.8-2,2.8-.3.5-.6,1-.9,1.5,0,.2-.6,1.6-.8,1.6,0,0-27.2,3.4-29.9,11.3v48.8s6.2,2.5,22.4.8c0,0,5.9-.8,17.3-1.2,0,0,8-.5,11.7-5.4h0s3.6,0,7.2,3.4c2.2,2.1,4.9,4.6,6.6,6.2v86.6c1.1,23.1,7.4,42.3,17.7,58.9,2.2,3.5,4.5,6.9,7,10.1.9,1.3,1.9,2.6,2.9,3.8.1.1.2.3.3.4,1.3,1.7,2.7,3.3,4,4.9,0,.1.2.2.3.3,1.4,1.6,2.9,3.2,4.3,4.8,0,0,.2.2.3.3,1.5,1.6,3.1,3.2,4.7,4.8,0,0,.1.1.2.2,1.6,1.6,3.3,3.2,5,4.8,0,0,0,0,0,0,19.2,17.6,43.1,32.8,69.1,48.2-1-.6-2-1.2-3-1.8,1.4.8,2.8,1.6,4.1,2.5l.3.2h0c.8.5,1.6.9,2.4,1.4l.5.3c.2,0,.4.1.5.1.2,0,.4,0,.5-.1l.5-.3c.8-.5,1.6-.9,2.4-1.4h0s.3-.2.3-.2c0,0,0,0,0,0h0s0,0,0,0c26.9-15.9,51.6-31.5,71.3-49.8,23.6-20.7,40.1-45,44.2-77.9.7-4.7,1.2-9.6,1.4-14.6v-6c.1,0,.1-46.8.1-46.8v-33.8c1.7-1.6,4.4-4.2,6.6-6.3,3.6-3.4,7.2-3.4,7.2-3.4h0c3.7,4.9,11.8,5.4,11.8,5.4,11.4.3,17.3,1.2,17.3,1.2,16.1,1.7,22.4-.8,22.4-.8v-48.8c-2.7-7.9-29.9-11.3-29.9-11.3ZM151.2,135.9c1.4-2.6,3.7-4.7,7.1-6.2,5.5-2.5,8.3-.3,8.2,6.7v7.9c-.1,3.8-.6,6.8-1.4,9-1.2,3.1-3.1,5.4-6.3,6.9-2.9,1.3-5.1,1.8-6.2,1-2.4-1.7-2-3.8-2.1-6.7l6.5-2.8c0,1.8,0,4,1.3,3.3,1-.5,1.3-1,1.6-2.4,0-.5.1-1.6.1-3.3v-2c-1.2,1.6-2.3,2.7-4,3.5-4.2,1.9-6.3,0-6.3-6.1,0-3.7.3-6.6,1.4-8.8ZM119.6,154.7c1.7,0,4.5-3.3,5.2-6.3l5.2-2.1.2,29.7-6.6,3.1-.3-21.6-3.7,2.3v-5.2ZM154.5,184.2c-.4.6-1,1-1.6,1.3-.2,0-.7.3-1,.4-.9.3-1.8.5-2.8.6-1.8.2-2.6.2-4.4.2-9.1-.1-22,1.4-22,1.4.2-1.8.8-2.8,3.5-3.3,6-.9,17.4-1.2,17.4-1.2.7,0,1.4,0,2.1-.1.7-.1,1.5-.3,1.9-.9.8-1.1-.6-2-1.4-2.5-.8-.5-1.8-.8-2.6-1.3-1.9-1.3-3.8-2.5-4.7-4.7-.6-1.4-.6-2.7-.6-4.1v-24.8c0-.3,0-.6,0-.9,0-2.5,0-5.4,0-5.4,0,0,0,0,0,0,0,0,.8-1.8,3.2-3.3h0s0,0,0,0v7c0,1.2,0,2.4,0,3.8,0,4.2,0,8.3,0,12.5,0,.6,0,1.2,0,1.8v8.4c0,2.5,1.5,4.8,3.6,6.1,1.2.8,2.6,1.1,4,1.4,1.9.5,2.5.6,4.1,1.8.8.6,1.6,1.8,1.8,2.8.2,1,.1,2.2-.4,3.1ZM176.8,188.7c0,.3-.3.5-.6.3-6.2-5.2-13.3-8-16.1-8.6-.7-.1-1.3-.6-1.7-1.2-1.2-2.3-3.5-4.1-5.9-5.5-1.8-1.1-7.4-3.2-7.4-3.2,8.7-7.2,25.6,1.8,27.4,2.8h0s.3.2.3.2h0v-54.3c.5-.5,2-1.9,3.9-3.1v3.4h0v69.3ZM413.8,230v46.8c0,7.2-.5,14.1-1.5,20.6-7.2,58.1-53.1,89.2-108.5,121.6,0,0,0,0,0,0-1.7,1-3.4,2-5.1,3l-.5.3c-.3.2-.7.2-1.1,0l-.5-.3c-63.3-37.3-115.1-72.5-115.1-145.2V114c0-.2,0-.3,0-.4,0-.3.1-.5.3-.8.3-.4.6-.7,1.1-.9.3-.1.5-.2.8-.2h227.8c.3,0,.6,0,.8.2.4.2.8.5,1.1.9.2.2.2.5.3.8,0,.1,0,.3,0,.4v85.1s0,30.9,0,30.9ZM438.8,135.8c-.4-.8-1-1.3-1.8-1.6-1.4-.5-1.4,1-1.3,3.7v1.4s-6.2-2.7-6.2-2.7v-1.5c0-2.9.3-4.8,1.8-5.7,1.4-1,3.5-.9,6.2.2,2.5,1,4.4,2.5,5.8,4.3,1.4,1.9,1.7,4.5,1.7,7.1,0,1.8-.3,3.2-.8,4.2-.4,1.3-3.8,3.7-3.8,3.7-2.2,1.3-3.4,2.9-3.6,3.9l8.7,3.4v5.2s-16.3-7-16.3-7v-1c0-3.9,1.9-6.9,5.7-9.5l2.8-2c1.2-.8,1.7-2.2,1.7-4.2,0-.8-.2-1.6-.5-2.2ZM436.8,179.2c-.3.6-1,1.1-1.7,1.2-2.8.6-9.9,3.3-16.1,8.6-.2.2-.6,0-.6-.3v-69.3s0,0,0,0v-3.4c2,1.2,3.5,2.6,3.9,3.1v54.3h0s.3-.1.3-.1h0c1.7-1,18.7-9.9,27.4-2.8,0,0-5.6,2.1-7.4,3.2-2.4,1.4-4.7,3.2-5.9,5.5ZM450.6,186.6c-1.8,0-2.6,0-4.4-.2-1,0-1.9-.3-2.8-.6-.2,0-.8-.3-1-.4-.7-.3-1.2-.7-1.6-1.3-.6-.9-.6-2.1-.4-3.1.2-1,1-2.2,1.8-2.8,1.6-1.1,2.2-1.3,4.1-1.8,1.4-.4,2.8-.7,4-1.4,2.1-1.3,3.5-3.6,3.6-6.1v-8.4c0-.6,0-1.2,0-1.8,0-4.2,0-8.3,0-12.5,0-1.5,0-2.6,0-3.8v-7h0s0,0,0,0c2.4,1.4,3.2,3.2,3.2,3.3,0,0,0,0,0,0,0,0,0,2.9,0,5.4,0,.3,0,.6,0,.9v24.8c0,1.4,0,2.8-.6,4.1-.9,2.2-2.8,3.4-4.7,4.7-.8.5-1.7.8-2.6,1.3-.8.4-2.2,1.3-1.4,2.5.4.6,1.2.8,1.9.9.7.1,1.4,0,2.1.1,0,0,11.3.3,17.4,1.2,2.7.4,3.2,1.5,3.5,3.3,0,0-12.9-1.5-22-1.4ZM478.5,172c0,3.3-.7,5.5-1.9,6.5-1.4,1.2-3.6,1.1-6.6-.4-2.3-1.1-4-2.4-5.2-4.1-1-1.4-1.7-3.1-2.1-5-.1-.8-.2-1.7-.3-2.6v-2.7c0,0,5.9,2.7,5.9,2.7,0,.9.3,3.6.3,4.5.2,1.2.5,2,1.4,2.5,1.6.9,2-.3,2.1-3.6,0-1.7,0-2.9,0-3.6-.3-1.6-.6-2.7-1.7-3.2-1.3-.6-2-.2-2.2,1.1l-5.3-2.5,1.1-15.2,14,6.5v5.1c-.1,0-9.6-4.4-9.6-4.4l-.4,4.4c1.3-.6,2.7-.5,4.3.2,2.6,1.2,4.3,3.8,5.3,6.4.7,1.9,1.1,4.3,1,7.3Z"/>
    <polygon class="st4" points="301.4 425.2 301.1 425.3 301.4 425.2 301.4 425.2"/>
    <path class="st4" d="M409.3,284h-48.5c0,0,0-.1,0-.2.2-1.3.5-2.5.6-3.8h47.7c.4,0,.7-.3.7-.7v-107.5h0v-1.2c0-.4-.3-.7-.7-.7h-108.8c-.4,0-.7.3-.7.7v1.1h0v45.5c-.2-.9-.6-1.7-.6-1.7,0,0,0,0,0,0-.5-1-1.5-1.9-3.4-2.3v-14.7h-24.5v20.3c-1.4.7-2.8,1.5-4.1,2.3v-22.6h-24.5v24.5h21.4c-2,1.3-3.9,2.7-5.8,4.1h-15.6v17.4c-1.9,3.5-3.3,7.3-4.2,11.1h-24.4v24.5h20.1c.2,1.2.5,2.4,1,3.6,0,.1,0,.2.1.3h-48.9c-.4,0-.7.3-.7.7,3.3,64.1,50.9,96.8,109.1,130.8.5.3,1,0,1-.6v-77.3c.6-.3,1.2-.6,1.8-.9.4-.2.9-.5,1.3-.6.4,0,.6,0,.9,0v78.7c0,.5.6.9,1,.6,58.3-34.1,106-66.7,109.3-130.8,0-.4-.3-.7-.7-.7ZM234.4,269.5c-.3,1.4-.4,2.8-.6,4.2,0,.8-.1,1.6-.1,2.4h-15.6v-16.3h16.3v9.8ZM299.7,223.2c1-1,1.5-1.6,1.5-1.6l1.7-1.7c.2-.3.5-.5.8-.8.6-.6,1.3-1,2.1-1.4,1.9-.9,3.7-1,5.7-.7,2.3.4,4.5,1.3,6.2,2.7.4.4.9.8,1.1,1.3.5,1.1-.3,2.3-1.1,3-.9.9-1.9,1.8-2.8,2.7-1.8,1.8-3.5,3.7-5.2,5.6-2.1,2.4-4.1,4.8-6.1,7.3-1.3,1.7-2.7,3.3-3.9,5,0,0,0,.1-.1.2-2.5,3.2-4.9,6.5-7.2,9.9-.9,1.4-1.9,2.7-2.8,4.1-1,1.5-3,2.8-4.9,2.1-.9-.3-1.8-1.3-2.4-1.9-.9-.9-1.6-2-2.4-3-.6-.8-1.1-1.5-1.4-2.4-.4-1.4,0-2.8.8-4,8-12.8,16.9-22.6,20.4-26.3ZM334.5,239.2c-7.9,8.7-15.8,17.5-23.7,26.2-1.6,1.8-3.3,3.6-5.5,4.7-.5.2-1.1.4-1.6.6-1.3.3-2.7.4-4.1.1-.9-.2-1.8-.5-2.6-1-2.5-1.5-4-4.4-3.7-7.2.2-2.1,1.4-4,2.5-5.8,1.2-1.9,2.5-3.8,3.8-5.6.5-.7,1-1.4,1.6-2.1.8-1.1,1.7-2.1,2.5-3.2,2-2.5,4.1-5,6.2-7.4.2-.2.4-.4.6-.6,3.6-3.9,7.5-7.4,11.6-10.7,1-.8,2-1.6,3.2-2,3.6-1.4,6.5,1.3,8.8,3.7,1.5,1.5,3.1,3.3,3.1,5.4,0,1.9-1.4,3.5-2.7,4.9ZM341.8,238.2c.2-.2.6-.3.9-.1,1,.6,1.9,1.2,2.8,2,1.7,1.4,3.2,2.9,4.5,4.6,1.1,1.5,2.1,3.1,2.9,4.7.7,1.5,1.2,3,1.6,4.6.3,1.3.6,2.7.7,4.1.1,1.1.1,2.2,0,3.3,0,.7,0,1.5-.2,2.2,0,.4-.5.5-.8.3l-19.7-15.6c-.6-.5-.7-1.3-.2-1.9l7.2-8.1ZM280.5,279.3s-1.2,1.3-1.6,4.7c0,.8-.1,1.7-.1,2.8,0,0,0,.5-.5,1.1-.3.3-.8.6-1.6.9h0c-2.1.7-5.5,2.3-5.9,2.5-5.3,2.7-13.3,7.6-19.7,14.1,0,0,0,0,0,0-.2.2-2.9,2.1-5.4-.6-2.6-2.9-3.7-6.8-4.3-11-.4-2.9,2.1-5.2,2.9-5.9.1-.1.2-.2.3-.2,0,0,0,0,0,0,.2-.2,1.6-1.6,4.1-3.6,5.2-4.2,14.8-11.2,27-15.5,0,0,0,0,0,0,.3-.1,9.5-3.9,19.2,6.4.2.2,0,.6-.3.6-2.9,0-10.4-.7-14.2,3.8ZM282.2,298.2c-.8,1.1-7,8.5-9.9,26.7,0,0-.8,6.2-5.8,3.1-2.1-1.3-4.2-2.5-6.2-4-2-1.5-3.8-3.4-5.3-5.4-.1-.2-.3-.4-.4-.6-.8-1.1-1.6-2.3-1.9-3.7-.5-2.9,2.3-5.3,4.2-7.2,2.2-2.2,4.6-4.2,7.2-6,3.8-2.7,7.9-4.9,12.1-6.8.3-.2.7-.3,1-.5,0,0,2.2-.9,3.6.8l1.3,1.4s1,1,.2,2.1ZM275.2,202.5h16.3v10.7c-2.7.3-5.4.5-8.1,1.1-2.8.6-5.6,1.5-8.2,2.6v-14.4ZM267,238c.3-1.1.6-2.2.9-3.4h0s1.6-5.8,3.8-10.3c0,0,0-.1,0-.2,0,0,0,0,0,0h0c.2-.3.4-.7.8-1.2.7-.8,1.9-1.8,3.9-2.7,1.3-.6,2.6-1,3.8-1.4,2.6-.8,4.6-1,4.6-1,2.2-.4,4.4-.7,6.7-.8.6,0,1.1,0,1.7,0,.6,0,1.2,0,1.7,0,1.5.2-1.6,4.1-1.9,4.6-.3.4-.7.9-1,1.3-.6.8-1.3,1.6-1.9,2.3-1,1.2-2,2.3-2.9,3.6-2.7,3.5-5.2,7.1-7.5,10.8-1.3,2.2-2.5,4.4-3.4,6.7l-.7,1.9-8.5.8-2,.2s.5-5.1,2-11.3ZM246.6,231.1h6.4c-2.4,2.1-4.5,4.5-6.4,7v-7ZM242,255.9c.2-1,.6-2.5,1.3-4.4.7-1.9,1.8-4.3,3.3-6.8,2.5-4.1,6.2-8.9,11.7-13.6,1.6-1.3,3.3-2.7,5.2-4,.2-.2.6,0,.5.3,0,.1,0,.2,0,.4-.5,1.1-.9,2.2-1.3,3.3-1.1,3-1.7,5.4-1.7,5.4h0c-1.2,4.1-2,8-2.5,11-.3,1.5-.4,2.8-.6,3.7,0,0,0,0,0,0l-1,.4-14.1,5.2c-.5.2-1-.3-.9-.8ZM238.3,270.3c0-.4,0-.9.1-1.3.2-1.1.5-2.1,1-3.1.3-.5.6-1,1.1-1.5.9-.9,2.1-1.4,3.3-2,1-.5,1.9-.9,2.9-1.4.9-.4,1.9-.8,2.8-1.1,3.5-1.2,7.1-2.4,10.7-3.4,2.2-.6,4.4-1.2,6.6-1.8,1.8-.5,4.5-1.1,6.2,0,.2.1.3.3.5.4.1.1.2.2.3.4,0,.1.2.2.3.3.1.1.2.3.3.4.1.2.2.3.4.5.1.2.3.4.4.5.1.2.3.4.4.6.2.2.3.5.4.7.2.2.3.5.5.7.2.3.3.5.4.8.1.3.3.6.4.8.1.3.3.6.4.9.2.3.2.7,0,1.1-.3.8-1.3,1-2,1.2-1.7.4-3.5.9-5.2,1.6-1.3.5-2.7,1.1-4,1.6-1.7.7-3.4,1.4-5.1,2.2-2.6,1.2-5.1,2.5-7.5,4.1-1.7,1.1-3.4,2.3-5,3.6-1.2,1-2.4,2-3.5,3.1-.9.8-1.9,1.7-2.9,2.4-3.8,2.5-4.1-1.5-4.1-1.5,0,0,0-.4,0-1.1-.1-1.8-.3-5.6,0-9.8ZM291.5,402.2v7.8c-27.1-16-51.6-32-70-51.3-1.6-1.6-3.1-3.3-4.5-5-15.3-17.6-25.6-38.1-28.4-63.9h0c0-.4,0-.8-.1-1.2,0,0,0,0,0,0h0c0-.4.4-.7.7-.7h49.5c.3.6,0,1.5-.2,2.1-.7,1.6-1,3.1-.8,4.8.2,1.9.7,3.7,1.4,5.5.7,1.9,1.5,3.7,2.5,5.4.7,1.3,1.3,2.4,2.6,3.2,1.4.9,3,1.1,4.6,1.3.2,0,.4.2.5.4,0,.2,0,.4,0,.6-.2,1.4-.4,2.8-.2,4.2.2,1.7.8,3.3,1.8,4.6,0,0,6.3,8,14.9,12.3.9.5,2.2.6,3.2.6.9,0,1.8-.1,2.6-.5.4-.2.9-.5,1.2-.9.3-.3.8-.9,1-.2,0,.2,0,.4,0,.6,0,2.9,2.9,4.8,5.3,5.9,1.2.5,2.4.9,3.7,1.2,1.2.3,2.4.3,3.7.3,1.7.1,3.4,0,5.1-.3v63.3ZM294.7,332.2s-.1,1.9-3.2,2.8c-1.5.4-3.7.6-7,.2-10.1-1.3-7.3-9.1-7.3-9.1,3.7-17,9.2-24.7,10.4-26.3.2-.2.4-.3.7-.3l3.2.5,3.5.5c.4,0,.6.4.6.7l-1,30.9ZM299.6,295.8c-.5,0-1.1,0-1.6,0-.9,0-1.6-.1-2.4-.2-1.6-.2-3-.4-4.1-.7-3-.8-4.9-2.1-6.4-4.3-.7-1-1.1-1.9-1.3-2.8-.4-1.4-.2-2.6.4-3.8.3-.7.8-1.4,1.5-2.1,2.4-2.5,6.1-3,7.9-2,1.8,1,4.8,1.3,4.8,1.3,0,0,6,.3,14.7.3,1.8,0,3.6.6,5,1.8.2.2.4.4.6.7,1.4,1.8,1.8,4.4,1.5,6.6-.3,2.4-2.2,4.1-4.6,4.4,0,0-8.8,1-15.9.8ZM321.4,329.6c-1.2,1.7-3.7,2.7-5.7,3.3-2.2.7-4.6,1-7,1.2-2,.1-4.5.4-6.1-1.1-.5-.5-1-1.3-1.1-2-1.1-9.3,0-20.1,0-20.1l.9-8.6c0-.4.3-.6.7-.6h9.3c.3,0,.5,0,.7.4l8.8,22.2c.4,1.8.4,3.8-.7,5.4ZM339.9,316.9c-1.3,2.9-5.5,5.9-5.5,5.9-1.9,1.2-4.3,1.8-6.1.1-.7-.6-1.2-1.4-1.6-2.2-.1-.3-.3-.6-.4-.9-.7-1.4-1.3-2.8-1.9-4.2-.5-1.4-1-2.8-1.5-4.2-.8-2.5-1.5-4.9-2.1-7.4-.2-.9-.5-1.9-.7-2.8,0-.3,0-.6.3-.7,2.3-1.4,4.1-2.8,4.9-3.5.3-.2.7-.2,1,0l1.6,1.8s7.7,8.7,11,12.4c2.9,3.4,1.1,5.7,1.1,5.7ZM350.3,305.6s-1,1.9-3.6,3.8c-.5.4-1.2.3-1.6-.2-.7-.8-1.4-1.5-2.1-2.3l-15.8-17.1c-.1-.1-.2-.3-.2-.4,0-.7-.3-2.6-2.1-5.3-.5-.8-1.2-1.7-2-2.6-.5-.5-1-1-1.5-1.4,0,0-.1-.1-.2-.2-1.3-.9-2.8-1.6-4.3-1.9-.7-.1-1.4-.1-2.2,0-.8.1-1.5-.2-2.1-.7-.3-.3-.6-.6-.9-.9-.1-.2-.3-.3-.4-.5-.4-.4-.7-.7-.9-1.3-.4-1.4.7-2.4,1.4-3.4,1-1.3,2-2.5,3.1-3.7,1-1.1,2.5-1.9,4-1.7,1,.2,1.9.8,2.6,1.5,0,0,3.9,4,8.8,9.1,1.1,1.2,2.3,2.4,3.5,3.6,1.3,1.3,2.6,2.7,3.9,4,5.8,6,11,11.3,11,11.3l.8,1c3.9,4.4.9,9.2.9,9.2ZM357.5,280c0,1.1-.2,2.5-.4,4-.3,2.2-.7,4.7-1.4,7.3-.2,1.1-.7,2.4-1.8,2.4-1.2,0-2.2-.9-3-1.7-1.7-1.7-3.4-3.4-5.2-5.1-.9-.9-1.8-1.9-2.8-2.8-1.3-1.3-2.6-2.7-3.9-4-.3-.3-.7-.7-1-1-.8-.9-1.7-1.7-2.5-2.6-1.8-1.8-3.5-3.6-5.3-5.4-2-2-3.9-4-5.9-6-.8-.8-1.9-1.5-2.3-2.5-.5-.9-.3-1.9.2-2.8,0-.1.1-.2.2-.3.2-.2.4-.4.5-.6.4-.5.8-.9,1.3-1.4,1-1.1,1.9-2.1,2.9-3.2.5-.5.9-1.1,1.4-1.5.4-.2.8-.4,1.3-.4,1.7-.1,3.4,1.1,4.7,2.1,4.9,4.1,19,15,19,15,0,0,3.9,2.5,4.2,7,0,.2,0,.4,0,.7h0s0,1.1,0,3ZM358.9,269.8c-.2-.5,0-1.1,0-1.7,0-.7.1-1.4.1-2,0-1.4,0-2.7,0-4.1-.2-3.6-.7-7.2-1.8-10.6-1.3-4-3.3-7.8-6.1-10.9-2.2-2.4-4.8-4.3-7.6-5.7-.6-.3-1.3-.4-1.9-.8-.5-.3-.8-.9-1-1.4-.3-.7-.6-1.3-1-1.9-2.4-4.2-6.2-8.7-11.4-9.1-2-.1-4.1.5-5.9,1.5,0,0,2.6-9.1-13.3-9.8-1.9,0-3.7.6-5.4,1.6v-40.7c0-.4.3-.7.7-.7h101.1c.4,0,.7.3.7.7v101.4h0c0,.4-.3.7-.7.7h-44c0-.3,0-.6,0-.8-.1-1-.3-2-.7-2.9-.3-.9-1.1-1.6-1.7-2.3-.1-.2-.3-.3-.3-.5Z"/>
    <path class="st4" d="M367.7,139.6c0-2.9-1.6-4.3-4.7-4.3h-4.4v8.7h4.4c3.2,0,4.7-1.4,4.7-4.3Z"/>
    <path class="st4" d="M242.7,155.6c5.7,0,7-3.7,7-11s-2.3-10.1-7-10.1-6.9,4.2-6.9,10.1,2.3,11,6.9,11Z"/>
    <path class="st4" d="M409.9,166v-50.3h-224.4v50.3h224.4ZM379.7,128.7h23.3v6.6h-14.8v5.9h13.6v6.6h-13.6v7.2h14.8v6.6h-23.3v-32.9ZM350.1,128.7h14.1c8.3,0,12.4,3.6,12.4,10.9s-7.1,10.9-12.4,10.9h-5.6v11h-8.5v-32.9ZM323.6,128.7h23.3v6.6h-14.8v5.9h13.6v6.6h-13.6v7.2h14.8v6.6h-23.3v-32.9ZM291.5,128.7h28.9v6.2h-10.7v26.6h-8.5v-26.6h-9.7v-6.2ZM262.1,155l16.1-20h-15.3v-6.2h25.4v6.9l-15.6,19.3h16.6v6.6h-27.3v-6.6ZM245,119.4h6.9v5.8h-6.9v-5.8ZM233.9,119.4h6.9v5.8h-6.9v-5.8ZM231,132.6c2.8-3.1,6.7-4.7,11.7-4.7s9,1.6,11.7,4.7c2.8,3.1,4.9,6.3,4.9,11.9s-1.4,10-4.2,13.1c-2.7,3.1-7.4,4.6-12.5,4.6s-9.4-1.5-12.1-4.6c-2.7-3.1-4.1-6.7-4.1-12.3s1.8-9.6,4.5-12.7ZM192.2,144.5c.7-15.3,13.6-16,18.4-16.2,4.5-.2,9.9,1.6,12.3,2.9,0,1.5,0,3.2,0,7.7h-1c-3.1-3.6-7.7-4.8-11.5-4.7-3.6,0-9.2,2.7-9.2,10.8s.6,5.7,2.1,7.6c1.6,2,3.5,3.1,6.5,3.4,2.1.2,3.1.1,4.8-.3v-6.2s-6.6,0-6.6,0v-5.7h14.7v16.3c-2.5.5-5,1.3-7.6,1.8-22.2,2.6-23.2-11.9-22.9-17.3Z"/>
    <path class="st4" d="M209.9,169.9h-24.5v24.5h24.5v-24.5ZM205.8,190.3h-16.3v-16.3h16.3v16.3Z"/>
    <rect class="st4" x="185.4" y="198.5" width="24.5" height="24.5"/>
    <path class="st4" d="M209.9,227.1h-24.5v24.5h24.5v-24.5ZM205.8,247.5h-16.3v-16.3h16.3v16.3Z"/>
    <rect class="st4" x="185.4" y="255.6" width="24.5" height="24.5"/>
    <rect class="st4" x="214" y="227.1" width="24.5" height="24.5"/>
    <path class="st4" d="M238.5,198.5h-24.5v24.5h24.5v-24.5ZM234.4,218.9h-16.3v-16.3h16.3v16.3Z"/>
    <rect class="st4" x="214" y="169.9" width="24.5" height="24.5"/>
    <path class="st4" d="M267,194.4v-24.5h-24.5v24.5h24.5ZM246.6,174h16.3v16.3h-16.3v-16.3Z"/>
    <rect class="st4" x="271.1" y="169.9" width="24.5" height="24.5"/>
    <path class="st4" d="M313.9,291.2c0,.8.7,1.5,1.5,1.5s1.5-.7,1.5-1.5-.2-.9-.6-1.2l.2-2.8c.5-.2.8-.7.8-1.3s-.7-1.5-1.5-1.5-1.5.7-1.5,1.5.2.9.6,1.2l-.2,2.8c-.5.2-.8.7-.8,1.3Z"/>
    <path class="st4" d="M309.8,293.3c.8,0,1.5-.7,1.5-1.5s-.2-.9-.6-1.2l.5-4.2c.5-.2.9-.7.9-1.3s-.2-.8-.5-1.1c-.3-.2-.6-.4-1-.4s-.7.1-1,.4c-.3.3-.5.7-.5,1.1s.2.9.6,1.2l-.5,4.2c-.5.2-.9.8-.9,1.4s.7,1.5,1.5,1.5Z"/>
    <path class="st4" d="M304.4,293.4c.8,0,1.5-.7,1.5-1.5s-.2-.9-.6-1.2l.5-5c.5-.2.9-.7.9-1.3s0-.2,0-.3c-.2-.7-.7-1.2-1.4-1.2s-1.3.5-1.4,1.2c0,.1,0,.2,0,.3,0,.5.2.9.6,1.2l-.5,5c-.5.2-.9.7-.9,1.3s.7,1.5,1.5,1.5Z"/>
    <path class="st4" d="M299.7,282.5c-.8,0-1.5.7-1.5,1.5s.2.9.6,1.2l-.4,5.1c-.5.2-.8.7-.8,1.3s.7,1.5,1.5,1.5.4,0,.6-.1c.5-.2.9-.8.9-1.4s-.2-.9-.6-1.2l.4-5.1c.5-.2.8-.7.8-1.3,0,0,0,0,0,0,0-.8-.7-1.5-1.5-1.5Z"/>
    <path class="st4" d="M294.5,282.7c-.8,0-1.4.6-1.5,1.3,0,0,0,0,0,.1,0,.4.2.8.5,1.1l-.7,3.7c-.6.2-1,.8-1,1.4s.7,1.5,1.5,1.5,1.5-.7,1.5-1.5-.2-.8-.5-1.1l.7-3.7c.3,0,.5-.3.6-.5.2-.3.3-.6.3-.9,0-.8-.7-1.5-1.5-1.5Z"/>
    <path class="st4" d="M289,282c-.8,0-1.5.7-1.5,1.5s0,.4.1.6c0,.2.2.4.4.5l-.5,2.7c-.3.1-.6.3-.7.6-.2.2-.2.5-.2.8,0,.8.7,1.5,1.5,1.5s1.5-.7,1.5-1.5,0-.6-.2-.8c0-.1-.2-.2-.2-.3l.5-2.7c.4-.1.7-.4.9-.8,0-.2.1-.4.1-.6,0-.8-.7-1.5-1.5-1.5Z"/>
  </g>
</svg>