<?xml version="1.0" encoding="UTF-8"?>
<svg xmlns="http://www.w3.org/2000/svg" xmlns:xlink="http://www.w3.org/1999/xlink" width="331.8pt" height="272.39pt" viewBox="0 0 331.8 272.39" version="1.1">
<defs>
<clipPath id="clip1">
  <path d="M 0 90 L 331.800781 90 L 331.800781 272.390625 L 0 272.390625 Z M 0 90 "/>
</clipPath>
</defs>
<g id="surface1">
<g clip-path="url(#clip1)" clip-rule="nonzero">
<path style=" stroke:none;fill-rule:nonzero;fill:rgb(81.567383%,54.116821%,0%);fill-opacity:1;" d="M 208.910156 107.691406 C 197.773438 96.890625 182.601563 90.226563 165.894531 90.226563 C 149.191406 90.226563 134.019531 96.890625 122.886719 107.691406 L 0 107.691406 L 165.898438 272.390625 L 331.796875 107.691406 "/>
</g>
<path style=" stroke:none;fill-rule:nonzero;fill:rgb(100%,100%,100%);fill-opacity:1;" d="M 165.894531 95.992188 C 196.800781 95.992188 221.953125 121.140625 221.953125 152.050781 C 221.953125 182.960938 196.800781 208.101563 165.894531 208.101563 C 134.988281 208.101563 109.84375 182.960938 109.84375 152.050781 C 109.84375 121.140625 134.988281 95.992188 165.894531 95.992188 "/>
<path style=" stroke:none;fill-rule:nonzero;fill:rgb(8.235168%,70.195007%,38.822937%);fill-opacity:1;" d="M 210.945313 134.625 L 206.183594 134.625 C 206.183594 134.574219 205.195313 121.996094 195.757813 117.859375 L 185.597656 117.859375 L 185.597656 117.609375 C 185.597656 107.421875 178.132813 105.332031 172.691406 105.332031 C 167.257813 105.332031 164.726563 107.605469 164.726563 107.605469 L 164.726563 114.953125 C 164.726563 114.953125 164.855469 112.363281 171.890625 112.363281 C 179.730469 112.363281 178.1875 117.855469 178.1875 117.855469 L 178.1875 117.859375 L 161.574219 117.859375 L 161.574219 113.378906 C 161.574219 105.777344 157.730469 103.785156 153.238281 103.785156 L 150.074219 103.796875 L 150.074219 111.945313 L 151.984375 111.945313 C 153.261719 111.945313 153.527344 112.894531 153.585938 113.554688 L 153.585938 117.859375 L 128.027344 117.859375 L 128.027344 125.6875 L 133.625 125.6875 L 133.625 134.148438 L 128.027344 134.148438 L 128.027344 141.179688 L 133.625 141.179688 L 133.625 148.84375 L 128.027344 148.84375 L 128.027344 157.148438 L 133.625 157.148438 L 133.625 164.660156 L 128.027344 164.660156 L 128.027344 171.683594 L 133.625 171.683594 L 133.625 179.683594 L 128.027344 179.683594 L 128.027344 186.710938 L 153.1875 186.710938 L 153.1875 188.703125 C 153.1875 190.0625 151.984375 189.898438 151.984375 189.898438 L 149.445313 189.898438 L 149.445313 198.046875 L 154.542969 198.046875 C 156.636719 198.046875 161.414063 195.878906 161.414063 190.535156 L 161.414063 187.664063 L 161.425781 186.710938 L 178.082031 186.710938 C 178.082031 190.429688 176.132813 192.195313 171.023438 192.195313 C 165.917969 192.195313 164.480469 189.730469 164.480469 189.730469 L 164.480469 197.140625 C 165.996094 198.828125 172.238281 199.308594 172.238281 199.308594 C 184.921875 199.308594 185.292969 188.703125 185.246094 186.710938 L 196.550781 186.710938 C 196.550781 186.710938 204.574219 183.328125 205.636719 172.324219 L 210.945313 172.324219 L 210.945313 165.9375 L 205.988281 165.9375 C 205.976563 165.476563 205.730469 155.234375 200.328125 152.304688 C 200.328125 152.304688 205.523438 149.367188 205.566406 141.027344 L 205.53125 141.023438 L 210.945313 141.023438 Z M 198.628906 141.023438 L 198.628906 141.027344 C 198.628906 141.027344 195.753906 148.835938 193.234375 148.835938 L 193.0625 148.84375 L 184.136719 148.84375 C 184.265625 148.585938 185.210938 146.789063 185.210938 145.171875 L 185.210938 125.6875 L 192.832031 125.6875 C 192.96875 125.730469 198.628906 127.726563 198.628906 134.625 L 193.367188 134.625 L 193.367188 141.023438 Z M 198.265625 172.324219 C 197.847656 173.539063 195.6875 179.617188 193.367188 179.617188 C 193.25 179.617188 193.175781 179.664063 193.097656 179.683594 L 185.210938 179.683594 L 185.210938 160.03125 L 185.167969 160.03125 C 185.058594 158.726563 184.503906 157.324219 184.417969 157.148438 L 192.59375 157.148438 C 193.238281 157.214844 198.59375 159.304688 198.613281 165.9375 L 193.367188 165.9375 L 193.367188 172.324219 Z M 178.023438 144.113281 L 178 145.171875 C 178 145.171875 177.59375 148.789063 175.238281 148.84375 L 169.40625 148.84375 L 169.40625 145.8125 L 164.777344 145.8125 L 164.777344 148.84375 L 161.574219 148.84375 L 161.574219 125.6875 L 178.023438 125.6875 Z M 178.023438 179.683594 L 161.574219 179.683594 L 161.574219 157.148438 L 164.777344 157.148438 L 164.777344 159.554688 L 169.40625 159.554688 L 169.40625 157.148438 L 175.957031 157.148438 C 177.769531 157.148438 178.023438 160.382813 178.023438 160.382813 Z M 140.003906 171.683594 L 144.640625 171.683594 L 144.640625 164.660156 L 140.003906 164.660156 L 140.003906 157.148438 L 153.585938 157.148438 L 153.585938 179.683594 L 140.003906 179.683594 Z M 140.003906 141.179688 L 144.640625 141.179688 L 144.640625 134.148438 L 140.003906 134.148438 L 140.003906 125.6875 L 153.585938 125.6875 L 153.585938 148.84375 L 140.003906 148.84375 L 140.003906 141.179688 "/>
<path style=" stroke:none;fill-rule:nonzero;fill:rgb(8.235168%,70.195007%,38.822937%);fill-opacity:1;" d="M 37.363281 113.457031 L 37.363281 136.65625 L 60.734375 159.859375 L 60.734375 113.457031 Z M 37.363281 113.457031 "/>
<path style=" stroke:none;fill-rule:nonzero;fill:rgb(100%,100%,100%);fill-opacity:1;" d="M 37.363281 113.457031 L 13.992188 113.457031 L 37.363281 136.65625 "/>
<path style=" stroke:none;fill-rule:nonzero;fill:rgb(8.235168%,70.195007%,38.822937%);fill-opacity:1;" d="M 104.078125 152.050781 C 104.078125 144.984375 105.277344 138.195313 107.472656 131.863281 L 107.472656 113.457031 L 84.105469 113.457031 L 84.105469 183.0625 L 107.472656 206.261719 L 107.472656 172.261719 C 105.273438 165.925781 104.078125 159.125 104.078125 152.050781 "/>
<path style=" stroke:none;fill-rule:nonzero;fill:rgb(100%,100%,100%);fill-opacity:1;" d="M 60.734375 113.457031 L 60.734375 159.859375 L 84.105469 183.0625 L 84.105469 113.457031 Z M 60.734375 113.457031 "/>
<path style=" stroke:none;fill-rule:nonzero;fill:rgb(8.235168%,70.195007%,38.822937%);fill-opacity:1;" d="M 130.84375 202.941406 L 130.84375 229.464844 L 154.214844 252.664063 L 154.214844 212.757813 C 145.671875 211.117188 137.75 207.714844 130.84375 202.941406 "/>
<path style=" stroke:none;fill-rule:nonzero;fill:rgb(100%,100%,100%);fill-opacity:1;" d="M 107.472656 172.261719 L 107.472656 206.261719 L 130.84375 229.460938 L 130.84375 202.945313 C 120.109375 195.527344 111.824219 184.804688 107.472656 172.261719 "/>
<path style=" stroke:none;fill-rule:nonzero;fill:rgb(100%,100%,100%);fill-opacity:1;" d="M 117.640625 113.457031 L 107.472656 113.457031 L 107.472656 131.863281 C 109.808594 125.128906 113.269531 118.914063 117.640625 113.457031 "/>
<path style=" stroke:none;fill-rule:nonzero;fill:rgb(8.235168%,70.195007%,38.822937%);fill-opacity:1;" d="M 177.585938 212.757813 L 177.585938 252.664063 L 200.953125 229.460938 L 200.953125 202.941406 C 194.046875 207.710938 186.125 211.117188 177.585938 212.757813 "/>
<path style=" stroke:none;fill-rule:nonzero;fill:rgb(100%,100%,100%);fill-opacity:1;" d="M 165.894531 213.871094 C 161.902344 213.871094 157.996094 213.484375 154.214844 212.757813 L 154.214844 252.664063 L 165.898438 264.265625 L 177.585938 252.664063 L 177.585938 212.757813 C 173.796875 213.484375 169.890625 213.871094 165.894531 213.871094 "/>
<path style=" stroke:none;fill-rule:nonzero;fill:rgb(8.235168%,70.195007%,38.822937%);fill-opacity:1;" d="M 224.324219 113.457031 L 224.324219 131.863281 C 226.519531 138.195313 227.722656 144.984375 227.722656 152.050781 C 227.722656 159.125 226.523438 165.925781 224.324219 172.261719 L 224.324219 206.261719 L 247.695313 183.058594 L 247.695313 113.457031 "/>
<path style=" stroke:none;fill-rule:nonzero;fill:rgb(100%,100%,100%);fill-opacity:1;" d="M 200.953125 202.941406 L 200.953125 229.460938 L 224.324219 206.261719 L 224.324219 172.261719 C 219.972656 184.804688 211.6875 195.523438 200.953125 202.941406 "/>
<path style=" stroke:none;fill-rule:nonzero;fill:rgb(100%,100%,100%);fill-opacity:1;" d="M 214.15625 113.457031 C 218.53125 118.914063 221.988281 125.128906 224.324219 131.863281 L 224.324219 113.457031 "/>
<path style=" stroke:none;fill-rule:nonzero;fill:rgb(8.235168%,70.195007%,38.822937%);fill-opacity:1;" d="M 271.066406 159.859375 L 294.433594 136.65625 L 294.433594 113.457031 L 271.066406 113.457031 Z M 271.066406 159.859375 "/>
<path style=" stroke:none;fill-rule:nonzero;fill:rgb(100%,100%,100%);fill-opacity:1;" d="M 247.695313 113.457031 L 247.695313 183.058594 L 271.066406 159.859375 L 271.066406 113.457031 Z M 247.695313 113.457031 "/>
<path style=" stroke:none;fill-rule:nonzero;fill:rgb(100%,100%,100%);fill-opacity:1;" d="M 294.433594 136.65625 L 317.804688 113.457031 L 294.433594 113.457031 "/>
<path style=" stroke:none;fill-rule:nonzero;fill:rgb(84.312439%,14.509583%,31.764221%);fill-opacity:1;" d="M 158.519531 60.28125 C 158.519531 57.617188 159.957031 55.289063 162.09375 54.019531 L 162.09375 37.632813 C 148.867188 38.207031 136.886719 41.8125 127.695313 47.4375 C 128.621094 51.175781 130.972656 54.757813 134.546875 57.867188 C 135.445313 57.46875 136.441406 57.238281 137.492188 57.238281 C 141.519531 57.238281 144.785156 60.503906 144.785156 64.535156 C 144.785156 67.421875 143.101563 69.910156 140.667969 71.09375 L 140.707031 71.183594 C 141.394531 72.5625 142.574219 73.597656 144.035156 74.089844 C 145.492188 74.578125 147.058594 74.46875 148.4375 73.785156 C 149.820313 73.101563 150.847656 71.917969 151.339844 70.457031 C 151.414063 70.242188 151.464844 70.027344 151.511719 69.804688 C 150.371094 69.304688 149.777344 68.011719 150.179688 66.808594 C 150.609375 65.527344 152 64.839844 153.277344 65.273438 C 154.554688 65.699219 155.242188 67.085938 154.816406 68.367188 C 154.65625 68.835938 154.371094 69.21875 154.011719 69.503906 C 154.691406 70.78125 155.828125 71.796875 157.246094 72.269531 C 158.703125 72.761719 160.265625 72.65625 161.648438 71.96875 C 163.03125 71.28125 164.054688 70.105469 164.546875 68.640625 C 164.679688 68.265625 164.746094 67.882813 164.792969 67.496094 C 161.253906 66.996094 158.519531 63.96875 158.519531 60.28125 "/>
<path style=" stroke:none;fill-rule:nonzero;fill:rgb(84.312439%,14.509583%,31.764221%);fill-opacity:1;" d="M 137.492188 71.828125 C 133.460938 71.828125 130.195313 68.5625 130.195313 64.535156 C 130.195313 64.410156 130.207031 64.289063 130.21875 64.164063 C 125.984375 60.652344 122.917969 56.550781 121.210938 52.140625 C 114.984375 57.492188 110.859375 63.984375 109.679688 71.078125 C 110.328125 70.886719 111.007813 70.78125 111.71875 70.78125 C 115.742188 70.78125 119.011719 74.046875 119.011719 78.074219 C 119.011719 79.960938 118.289063 81.675781 117.113281 82.972656 C 118.148438 83.96875 119.550781 84.578125 121.097656 84.578125 C 124.273438 84.578125 126.863281 81.992188 126.863281 78.8125 C 126.863281 78.585938 126.84375 78.367188 126.816406 78.144531 C 125.578125 78.027344 124.601563 76.996094 124.601563 75.722656 C 124.601563 74.371094 125.695313 73.277344 127.046875 73.277344 C 128.398438 73.277344 129.488281 74.371094 129.488281 75.722656 C 129.488281 76.214844 129.34375 76.671875 129.09375 77.054688 C 130.144531 78.054688 131.546875 78.648438 133.039063 78.648438 C 136.222656 78.648438 138.808594 76.0625 138.808594 72.886719 C 138.808594 72.488281 138.757813 72.101563 138.679688 71.722656 C 138.289063 71.785156 137.898438 71.828125 137.492188 71.828125 "/>
<path style=" stroke:none;fill-rule:nonzero;fill:rgb(84.312439%,14.509583%,31.764221%);fill-opacity:1;" d="M 173.28125 60.28125 C 173.28125 57.617188 171.84375 55.289063 169.707031 54.019531 L 169.707031 37.632813 C 182.929688 38.207031 194.910156 41.8125 204.101563 47.4375 C 203.175781 51.175781 200.824219 54.757813 197.25 57.867188 C 196.351563 57.46875 195.359375 57.238281 194.308594 57.238281 C 190.277344 57.238281 187.011719 60.503906 187.011719 64.535156 C 187.011719 67.421875 188.695313 69.910156 191.128906 71.09375 L 191.089844 71.183594 C 190.40625 72.5625 189.222656 73.597656 187.761719 74.089844 C 186.304688 74.578125 184.742188 74.46875 183.359375 73.785156 C 181.976563 73.101563 180.949219 71.917969 180.460938 70.457031 C 180.386719 70.242188 180.332031 70.027344 180.289063 69.804688 C 181.425781 69.304688 182.023438 68.011719 181.621094 66.808594 C 181.191406 65.527344 179.800781 64.839844 178.519531 65.273438 C 177.242188 65.699219 176.554688 67.085938 176.984375 68.367188 C 177.140625 68.835938 177.425781 69.21875 177.785156 69.503906 C 177.109375 70.78125 175.96875 71.796875 174.554688 72.269531 C 173.09375 72.761719 171.53125 72.65625 170.148438 71.96875 C 168.765625 71.28125 167.742188 70.105469 167.25 68.640625 C 167.121094 68.265625 167.050781 67.882813 167.003906 67.496094 C 170.546875 66.996094 173.28125 63.96875 173.28125 60.28125 "/>
<path style=" stroke:none;fill-rule:nonzero;fill:rgb(84.312439%,14.509583%,31.764221%);fill-opacity:1;" d="M 194.308594 71.828125 C 198.335938 71.828125 201.605469 68.5625 201.605469 64.535156 C 201.605469 64.410156 201.59375 64.289063 201.578125 64.164063 C 205.8125 60.652344 208.878906 56.550781 210.589844 52.140625 C 216.8125 57.492188 220.9375 63.984375 222.117188 71.078125 C 221.46875 70.886719 220.789063 70.78125 220.078125 70.78125 C 216.054688 70.78125 212.785156 74.046875 212.785156 78.074219 C 212.785156 79.960938 213.511719 81.675781 214.6875 82.972656 C 213.648438 83.96875 212.246094 84.578125 210.703125 84.578125 C 207.523438 84.578125 204.933594 81.992188 204.933594 78.8125 C 204.933594 78.585938 204.953125 78.367188 204.980469 78.144531 C 206.222656 78.027344 207.195313 76.996094 207.195313 75.722656 C 207.195313 74.371094 206.101563 73.277344 204.753906 73.277344 C 203.402344 73.277344 202.308594 74.371094 202.308594 75.722656 C 202.308594 76.214844 202.453125 76.671875 202.703125 77.054688 C 201.652344 78.054688 200.25 78.648438 198.757813 78.648438 C 195.578125 78.648438 192.992188 76.0625 192.992188 72.886719 C 192.992188 72.488281 193.039063 72.101563 193.121094 71.722656 C 193.507813 71.785156 193.898438 71.828125 194.308594 71.828125 "/>
<path style=" stroke:none;fill-rule:nonzero;fill:rgb(81.567383%,54.116821%,0%);fill-opacity:1;" d="M 222.914063 71.394531 C 222.625 71.269531 222.324219 71.167969 222.019531 71.078125 C 221.375 70.886719 220.695313 70.78125 219.984375 70.78125 C 215.960938 70.78125 212.691406 74.046875 212.691406 78.074219 C 212.691406 79.960938 213.414063 81.675781 214.589844 82.972656 C 213.554688 83.964844 212.152344 84.578125 210.605469 84.578125 C 207.429688 84.578125 204.839844 81.992188 204.839844 78.8125 C 204.839844 78.585938 204.859375 78.363281 204.886719 78.144531 C 206.128906 78.027344 207.101563 76.996094 207.101563 75.722656 C 207.101563 74.371094 206.007813 73.277344 204.660156 73.277344 C 203.304688 73.277344 202.210938 74.371094 202.210938 75.722656 C 202.210938 76.214844 202.359375 76.671875 202.609375 77.050781 C 201.558594 78.050781 200.15625 78.648438 198.664063 78.648438 C 195.480469 78.648438 192.898438 76.0625 192.898438 72.882813 C 192.898438 72.488281 192.949219 72.101563 193.023438 71.722656 C 193.414063 71.785156 193.808594 71.828125 194.214844 71.828125 C 198.242188 71.828125 201.507813 68.5625 201.507813 64.535156 C 201.507813 64.410156 201.496094 64.285156 201.484375 64.164063 C 205.71875 60.648438 208.785156 56.550781 210.492188 52.140625 C 211.527344 49.472656 212.066406 46.695313 212.066406 43.859375 C 212.066406 41.777344 211.765625 39.738281 211.203125 37.769531 C 216.398438 38.613281 221.015625 40.785156 224.59375 44.152344 C 228.519531 47.84375 230.683594 52.535156 230.683594 57.351563 C 230.683594 62.394531 227.902344 67.328125 222.914063 71.394531 M 190.996094 71.1875 C 190.308594 72.5625 189.128906 73.59375 187.667969 74.085938 C 186.210938 74.578125 184.644531 74.46875 183.265625 73.785156 C 181.882813 73.101563 180.855469 71.914063 180.367188 70.457031 C 180.292969 70.246094 180.238281 70.027344 180.191406 69.808594 C 181.332031 69.304688 181.929688 68.015625 181.527344 66.808594 C 181.09375 65.527344 179.707031 64.839844 178.425781 65.273438 C 177.148438 65.699219 176.460938 67.085938 176.886719 68.367188 C 177.046875 68.835938 177.332031 69.21875 177.691406 69.5 C 177.015625 70.78125 175.875 71.796875 174.457031 72.269531 C 173 72.761719 171.433594 72.65625 170.054688 71.96875 C 168.671875 71.285156 167.648438 70.105469 167.15625 68.640625 C 167.027344 68.265625 166.957031 67.882813 166.910156 67.496094 C 170.453125 66.996094 173.1875 63.964844 173.1875 60.28125 C 173.1875 57.617188 171.746094 55.289063 169.613281 54.015625 L 169.613281 19.820313 C 188.855469 21.0625 204.449219 31.566406 204.449219 43.859375 C 204.449219 45.0625 204.296875 46.257813 204.007813 47.4375 C 203.082031 51.175781 200.730469 54.757813 197.15625 57.867188 C 196.257813 57.464844 195.265625 57.238281 194.214844 57.238281 C 190.183594 57.238281 186.917969 60.503906 186.917969 64.535156 C 186.917969 67.421875 188.601563 69.910156 191.035156 71.089844 Z M 164.644531 68.640625 C 164.152344 70.105469 163.125 71.285156 161.746094 71.96875 C 160.363281 72.65625 158.796875 72.761719 157.339844 72.269531 C 155.925781 71.796875 154.785156 70.78125 154.109375 69.5 C 154.46875 69.21875 154.753906 68.835938 154.910156 68.367188 C 155.339844 67.085938 154.652344 65.699219 153.371094 65.273438 C 152.09375 64.839844 150.703125 65.527344 150.273438 66.808594 C 149.871094 68.015625 150.464844 69.304688 151.605469 69.808594 C 151.5625 70.027344 151.507813 70.246094 151.433594 70.457031 C 150.945313 71.914063 149.914063 73.101563 148.535156 73.785156 C 147.152344 74.46875 145.589844 74.578125 144.128906 74.085938 C 142.671875 73.59375 141.488281 72.5625 140.804688 71.1875 L 140.765625 71.089844 C 143.195313 69.910156 144.878906 67.421875 144.878906 64.535156 C 144.878906 60.503906 141.617188 57.238281 137.585938 57.238281 C 136.535156 57.238281 135.539063 57.464844 134.640625 57.867188 C 131.070313 54.757813 128.714844 51.175781 127.792969 47.4375 C 127.5 46.257813 127.347656 45.0625 127.347656 43.859375 C 127.347656 31.566406 142.941406 21.0625 162.183594 19.820313 L 162.183594 54.015625 C 160.050781 55.289063 158.613281 57.617188 158.613281 60.28125 C 158.613281 63.964844 161.347656 66.996094 164.890625 67.496094 C 164.839844 67.882813 164.769531 68.265625 164.644531 68.640625 M 133.136719 78.648438 C 131.644531 78.648438 130.238281 78.050781 129.1875 77.050781 C 129.4375 76.671875 129.585938 76.214844 129.585938 75.722656 C 129.585938 74.371094 128.492188 73.277344 127.140625 73.277344 C 125.792969 73.277344 124.699219 74.371094 124.699219 75.722656 C 124.699219 76.996094 125.671875 78.027344 126.914063 78.144531 C 126.9375 78.363281 126.957031 78.585938 126.957031 78.8125 C 126.957031 81.992188 124.371094 84.578125 121.191406 84.578125 C 119.644531 84.578125 118.242188 83.964844 117.207031 82.972656 C 118.382813 81.675781 119.105469 79.960938 119.105469 78.074219 C 119.105469 74.046875 115.839844 70.78125 111.8125 70.78125 C 111.101563 70.78125 110.425781 70.886719 109.777344 71.078125 C 109.472656 71.167969 109.175781 71.269531 108.886719 71.394531 C 103.894531 67.328125 101.117188 62.394531 101.117188 57.351563 C 101.117188 52.535156 103.277344 47.84375 107.203125 44.152344 C 110.78125 40.785156 115.402344 38.613281 120.597656 37.769531 C 120.03125 39.738281 119.730469 41.777344 119.730469 43.859375 C 119.730469 46.695313 120.273438 49.472656 121.304688 52.140625 C 123.015625 56.550781 126.078125 60.648438 130.3125 64.164063 C 130.300781 64.285156 130.289063 64.410156 130.289063 64.535156 C 130.289063 68.5625 133.558594 71.828125 137.585938 71.828125 C 137.992188 71.828125 138.382813 71.785156 138.773438 71.722656 C 138.851563 72.101563 138.902344 72.488281 138.902344 72.882813 C 138.902344 76.0625 136.316406 78.648438 133.136719 78.648438 M 238.214844 57.351563 C 238.214844 50.4375 235.210938 43.800781 229.753906 38.667969 C 223.902344 33.152344 216.023438 30.085938 207.3125 29.851563 C 200.597656 20.503906 187.386719 13.746094 171.753906 12.355469 C 171.734375 9.691406 169.96875 7.445313 167.539063 6.703125 L 167.539063 5.589844 L 170.449219 5.585938 L 170.449219 2.253906 L 167.53125 2.257813 L 167.527344 0.00390625 L 164.269531 0.00390625 L 164.269531 2.257813 L 161.351563 2.253906 L 161.347656 5.585938 L 164.257813 5.589844 L 164.257813 6.703125 C 161.828125 7.445313 160.0625 9.691406 160.046875 12.355469 C 144.414063 13.746094 131.199219 20.503906 124.484375 29.851563 C 115.777344 30.085938 107.894531 33.152344 102.046875 38.667969 C 96.589844 43.800781 93.585938 50.4375 93.585938 57.351563 C 93.585938 64.875 97.511719 72.003906 104.542969 77.574219 C 104.53125 77.738281 104.515625 77.90625 104.515625 78.074219 C 104.515625 82.101563 107.785156 85.367188 111.8125 85.367188 C 112.617188 85.367188 113.386719 85.234375 114.109375 84.996094 C 114.707031 86.171875 116.667969 89.15625 121.28125 89.246094 C 120.996094 89.453125 120.703125 89.648438 120.414063 89.859375 C 119.652344 90.4375 118.535156 92.035156 119.769531 93.964844 C 120.34375 94.855469 121.183594 95.324219 122.203125 95.324219 C 122.5625 95.324219 122.894531 95.261719 123.175781 95.1875 L 126.914063 100.296875 L 127.65625 99.753906 C 138.828125 91.570313 152.046875 87.238281 165.898438 87.238281 C 179.75 87.238281 192.972656 91.570313 204.140625 99.753906 L 204.886719 100.296875 L 208.621094 95.1875 C 208.90625 95.261719 209.238281 95.324219 209.59375 95.324219 C 210.613281 95.324219 211.453125 94.855469 212.027344 93.964844 C 213.261719 92.035156 212.144531 90.4375 211.382813 89.859375 C 211.097656 89.648438 210.804688 89.453125 210.519531 89.246094 C 215.128906 89.15625 217.09375 86.171875 217.6875 84.996094 C 218.414063 85.234375 219.183594 85.367188 219.984375 85.367188 C 224.015625 85.367188 227.28125 82.101563 227.28125 78.074219 C 227.28125 77.90625 227.269531 77.738281 227.257813 77.574219 C 234.289063 72.003906 238.214844 64.875 238.214844 57.351563 "/>
</g>
</svg>
